<svg width="19" height="20" viewBox="0 0 19 20" fill="none" xmlns="http://www.w3.org/2000/svg">
<path d="M5.9375 18.0542C6.59334 18.0542 7.125 17.5225 7.125 16.8667C7.125 16.2109 6.59334 15.6792 5.9375 15.6792C5.28166 15.6792 4.75 16.2109 4.75 16.8667C4.75 17.5225 5.28166 18.0542 5.9375 18.0542Z" fill="white"/>
<path d="M14.25 18.0542C14.9058 18.0542 15.4375 17.5225 15.4375 16.8667C15.4375 16.2109 14.9058 15.6792 14.25 15.6792C13.5942 15.6792 13.0625 16.2109 13.0625 16.8667C13.0625 17.5225 13.5942 18.0542 14.25 18.0542Z" fill="white"/>
<path d="M16.625 4.39795H3.45563L2.96875 1.9042C2.94099 1.76807 2.86637 1.64598 2.75788 1.55919C2.6494 1.4724 2.51391 1.4264 2.375 1.4292H0V2.6167H1.88813L4.15625 14.0167C4.18401 14.1528 4.25863 14.2749 4.36712 14.3617C4.4756 14.4485 4.61109 14.4945 4.75 14.4917H15.4375V13.3042H5.23687L4.75 10.9292H15.4375C15.5748 10.9326 15.7089 10.8882 15.8172 10.8038C15.9254 10.7194 16.0011 10.6 16.0312 10.4661L17.2188 5.12232C17.2386 5.03423 17.2382 4.94275 17.2174 4.85486C17.1966 4.76697 17.156 4.68497 17.0988 4.61512C17.0415 4.54527 16.9691 4.48941 16.887 4.45177C16.8049 4.41414 16.7153 4.39573 16.625 4.39795ZM14.9625 9.7417H4.52437L3.69312 5.58545H15.8828L14.9625 9.7417Z" fill="white"/>
</svg>
