<svg width="19" height="18" viewBox="0 0 19 18" fill="none" xmlns="http://www.w3.org/2000/svg">
<path d="M0 0.153809H18V12.1538H0V0.153809ZM9 3.15381C9.79565 3.15381 10.5587 3.46988 11.1213 4.03249C11.6839 4.5951 12 5.35816 12 6.15381C12 6.94946 11.6839 7.71252 11.1213 8.27513C10.5587 8.83774 9.79565 9.15381 9 9.15381C8.20435 9.15381 7.44129 8.83774 6.87868 8.27513C6.31607 7.71252 6 6.94946 6 6.15381C6 5.35816 6.31607 4.5951 6.87868 4.03249C7.44129 3.46988 8.20435 3.15381 9 3.15381ZM4 2.15381C4 2.68424 3.78929 3.19295 3.41421 3.56802C3.03914 3.94309 2.53043 4.15381 2 4.15381V8.15381C2.53043 8.15381 3.03914 8.36452 3.41421 8.7396C3.78929 9.11467 4 9.62338 4 10.1538H14C14 9.62338 14.2107 9.11467 14.5858 8.7396C14.9609 8.36452 15.4696 8.15381 16 8.15381V4.15381C15.4696 4.15381 14.9609 3.94309 14.5858 3.56802C14.2107 3.19295 14 2.68424 14 2.15381H4ZM1 5.15381H3V15.1538H19V17.1538H1V5.15381Z" fill="white"/>
</svg>
