<svg width="52" height="41" viewBox="0 0 52 41" fill="none" xmlns="http://www.w3.org/2000/svg">
<g clip-path="url(#clip0_56_527)">
<path d="M31.9333 36.4152L30.5455 37.695L31.6484 35.8412C30.7795 34.2627 29.3584 32.8986 29.3584 32.8986C29.3584 32.8986 26.41 35.7282 26.41 37.9525C26.41 40.1768 27.7301 40.9534 29.3584 40.9534C30.9867 40.9534 32.3067 40.1768 32.3067 37.9525C32.3067 37.4574 32.1604 36.9324 31.9333 36.4152Z" fill="#3B9C44"/>
<path d="M30.1886 37.7643V37.8739C30.1821 39.1483 29.9676 40.1427 29.5466 40.8428C29.5406 40.8532 29.5341 40.8629 29.5281 40.8732L29.481 40.8445L29.436 40.8163C29.9031 40.0602 30.0683 38.9915 30.0743 37.8799C30.0748 37.8441 30.0754 37.8077 30.0748 37.7713C30.0732 37.3008 30.0445 36.8248 29.9985 36.3623C29.9952 36.3265 29.9914 36.2901 29.9876 36.2538C29.9237 35.6437 29.8316 35.0608 29.7373 34.5544C29.7308 34.5186 29.7237 34.4827 29.7167 34.4475C29.5536 33.591 29.3873 32.9706 29.3493 32.8333C29.345 32.8165 29.3423 32.8072 29.3418 32.8051L29.3932 32.7904L29.3938 32.7899L29.4458 32.7752C29.4463 32.7774 29.4555 32.8083 29.4707 32.8658C29.5287 33.0808 29.6793 33.6643 29.8272 34.4339C29.8337 34.4686 29.8408 34.5045 29.8473 34.5403C29.9242 34.9511 29.9995 35.4103 30.0591 35.8923C30.0743 36.0133 30.0878 36.1327 30.0998 36.2505C30.1041 36.2869 30.1079 36.3232 30.1111 36.3591C30.161 36.859 30.1868 37.3274 30.1886 37.7643Z" fill="white"/>
<path d="M29.8272 34.4339C29.7909 34.4388 29.7541 34.4437 29.7167 34.4475C29.6152 34.4579 29.5132 34.4632 29.4111 34.4632C28.9761 34.4638 28.5466 34.3666 28.1541 34.1788C28.1313 34.2076 28.1086 34.2363 28.0853 34.2656C28.4982 34.4675 28.9517 34.5722 29.4111 34.5718C29.5201 34.5717 29.6289 34.5659 29.7373 34.5544C29.7741 34.5506 29.811 34.5457 29.8473 34.5403C30.1469 34.4972 30.4383 34.4088 30.7115 34.2781C30.6882 34.2483 30.6654 34.219 30.6432 34.1902C30.3847 34.3112 30.1097 34.3934 29.8272 34.4339Z" fill="white"/>
<path d="M30.0998 36.2505C30.0624 36.2527 30.025 36.2538 29.9876 36.2538C29.9762 36.2543 29.9643 36.2543 29.9529 36.2543C29.4816 36.2543 29.0173 36.1402 28.5995 35.9216C28.1818 35.703 27.823 35.3864 27.5537 34.9989C27.5321 35.0309 27.5104 35.0629 27.4893 35.0955C27.7699 35.4876 28.1398 35.8071 28.5682 36.0275C28.9966 36.2479 29.4713 36.3628 29.9529 36.3629C29.9681 36.3629 29.9833 36.3629 29.9985 36.3623C30.0364 36.3618 30.0738 36.3607 30.1112 36.3591C30.6897 36.3294 31.2474 36.1334 31.7177 35.7946C31.7003 35.7626 31.683 35.7305 31.6651 35.6985C31.2081 36.0312 30.6641 36.223 30.0998 36.2505Z" fill="white"/>
<path d="M30.1886 37.7643C30.1507 37.7675 30.1128 37.7697 30.0748 37.7713C30.0342 37.773 29.9936 37.7741 29.9529 37.7741C29.3196 37.7733 28.7036 37.5671 28.197 37.1863C27.6905 36.8055 27.3207 36.2706 27.143 35.6616C27.1187 35.7056 27.0943 35.749 27.071 35.793C27.2711 36.4005 27.6573 36.9294 28.1747 37.3045C28.6921 37.6797 29.3143 37.8819 29.9529 37.8826C29.9936 37.8826 30.0342 37.8821 30.0743 37.8799C30.1128 37.8788 30.1507 37.8766 30.1886 37.8739C30.9547 37.8139 31.6694 37.4645 32.188 36.8964C32.1766 36.8562 32.1636 36.8166 32.1506 36.7765C31.6497 37.3488 30.946 37.7031 30.1886 37.7643Z" fill="white"/>
<path d="M7.11246 14.4678C11.0406 14.4678 14.2249 11.2779 14.2249 7.34302C14.2249 3.40809 11.0406 0.218201 7.11246 0.218201C3.18436 0.218201 0 3.40809 0 7.34302C0 11.2779 3.18436 14.4678 7.11246 14.4678Z" fill="#E4E4E4"/>
<path d="M7.11246 13.2804C10.3859 13.2804 13.0395 10.6221 13.0395 7.34302C13.0395 4.06391 10.3859 1.40567 7.11246 1.40567C3.83904 1.40567 1.18541 4.06391 1.18541 7.34302C1.18541 10.6221 3.83904 13.2804 7.11246 13.2804Z" fill="#70A4D6"/>
<path d="M26 14.4678C29.9281 14.4678 33.1125 11.2779 33.1125 7.34302C33.1125 3.40809 29.9281 0.218201 26 0.218201C22.0719 0.218201 18.8875 3.40809 18.8875 7.34302C18.8875 11.2779 22.0719 14.4678 26 14.4678Z" fill="#E4E4E4"/>
<path d="M26 13.2804C29.2734 13.2804 31.9271 10.6221 31.9271 7.34302C31.9271 4.06391 29.2734 1.40567 26 1.40567C22.7266 1.40567 20.073 4.06391 20.073 7.34302C20.073 10.6221 22.7266 13.2804 26 13.2804Z" fill="white"/>
<path d="M44.8875 14.4678C48.8156 14.4678 52 11.2779 52 7.34302C52 3.40809 48.8156 0.218201 44.8875 0.218201C40.9594 0.218201 37.7751 3.40809 37.7751 7.34302C37.7751 11.2779 40.9594 14.4678 44.8875 14.4678Z" fill="#E4E4E4"/>
<path d="M44.8875 13.2804C48.161 13.2804 50.8146 10.6221 50.8146 7.34302C50.8146 4.06391 48.161 1.40567 44.8875 1.40567C41.6141 1.40567 38.9605 4.06391 38.9605 7.34302C38.9605 10.6221 41.6141 13.2804 44.8875 13.2804Z" fill="white"/>
<path d="M6.60882 9.49011C6.59822 9.49011 6.58761 9.48985 6.57699 9.48933C6.48325 9.48481 6.3916 9.46002 6.30832 9.41668C6.22504 9.37333 6.15211 9.31246 6.09452 9.23823L5.18534 8.06724C5.07948 7.93058 5.03205 7.75743 5.05346 7.58578C5.07488 7.41413 5.16338 7.25799 5.29956 7.15163L5.33227 7.12612C5.46871 7.02008 5.64157 6.97257 5.81293 6.99402C5.98429 7.01547 6.14016 7.10413 6.24636 7.24054C6.2976 7.30655 6.36247 7.36068 6.43654 7.39923C6.5106 7.43779 6.59211 7.45986 6.67547 7.46393C6.75884 7.468 6.8421 7.45398 6.91956 7.42282C6.99702 7.39167 7.06684 7.34411 7.12424 7.28342L8.97035 5.33128C9.02918 5.26908 9.09966 5.21908 9.17778 5.18417C9.25589 5.14925 9.34011 5.13008 9.42562 5.12777C9.51113 5.12546 9.59626 5.14004 9.67614 5.17069C9.75603 5.20133 9.8291 5.24744 9.8912 5.30638L9.92134 5.33498C10.0467 5.454 10.1198 5.61804 10.1245 5.79102C10.1291 5.96399 10.065 6.13174 9.94619 6.25736L7.08152 9.28635C7.0207 9.35073 6.94741 9.402 6.86614 9.43704C6.78486 9.47207 6.6973 9.49013 6.60882 9.49011Z" fill="white"/>
<path d="M22.8784 5.90035H18.1969V1.82189C18.2018 1.56936 18.3063 1.32905 18.4877 1.15363C18.6692 0.978219 18.9126 0.882015 19.1647 0.886112H20.7208C21.9105 0.886112 22.8784 1.822 22.8784 2.97235V5.90035Z" fill="#2F2E41"/>
<path d="M24.6116 40.0287L23.7229 40.0286L23.3 36.5948L24.6117 36.5948L24.6116 40.0287Z" fill="#FFB6B6"/>
<path d="M24.8382 40.8916L21.9726 40.8915V40.8552C21.9726 40.5589 22.0901 40.2747 22.2993 40.0652C22.5085 39.8557 22.7922 39.7379 23.088 39.7379H23.088L24.8383 39.738L24.8382 40.8916Z" fill="#2F2E41"/>
<path d="M16.4201 40.0287L15.5314 40.0286L15.1086 36.5948L16.4203 36.5948L16.4201 40.0287Z" fill="#FFB6B6"/>
<path d="M16.6468 40.8916L13.7812 40.8915V40.8552C13.7812 40.5589 13.8987 40.2747 14.1079 40.0652C14.317 39.8557 14.6007 39.7379 14.8965 39.7379H14.8966L16.6468 39.738L16.6468 40.8916Z" fill="#2F2E41"/>
<path d="M17.4932 12.4417L16.9133 16.1451L22.4225 16.2177L21.6976 12.6595L17.4932 12.4417Z" fill="#FFB6B6"/>
<path d="M17.0731 15.2408L15.3184 19.9212L15.101 39.3173H16.587L20.1391 23.7336L23.4012 38.9104H24.851L23.8361 21.8455C23.8361 21.8455 24.1354 18.4204 22.6038 16.3993L22.2309 15.3203L17.0731 15.2408Z" fill="#70A4D6"/>
<path d="M24.5997 18.8894C24.4463 18.8475 24.304 18.7725 24.1827 18.6695C24.0614 18.5666 23.9641 18.4382 23.8976 18.2935C23.8312 18.1488 23.7973 17.9913 23.7982 17.832C23.7991 17.6728 23.8348 17.5156 23.9029 17.3717L21.5592 9.71729L23.2831 9.37497L25.4267 16.8779C25.6605 17.0085 25.8383 17.2205 25.9265 17.4737C26.0146 17.7269 26.007 18.0037 25.9051 18.2516C25.8032 18.4995 25.614 18.7014 25.3734 18.819C25.1328 18.9365 24.8575 18.9616 24.5997 18.8894H24.5997Z" fill="#FFB6B6"/>
<path d="M21.4981 14.4869L17.7004 14.4135C17.5918 14.4112 17.487 14.3733 17.402 14.3056C17.317 14.238 17.2565 14.1442 17.2298 14.0388C17.0262 13.2314 16.5783 11.127 16.8158 9.03108C16.8627 8.62505 16.9904 8.23256 17.1914 7.87684C17.3924 7.52113 17.6625 7.2094 17.9859 6.9601C18.3092 6.71081 18.6792 6.52901 19.0739 6.42547C19.4686 6.32193 19.8801 6.29875 20.2839 6.35729C20.7099 6.41838 21.1182 6.56901 21.482 6.79929C21.8457 7.02956 22.1568 7.33429 22.3948 7.69347C22.6327 8.05265 22.7922 8.45817 22.8627 8.88342C22.9332 9.30868 22.9131 9.74406 22.8038 10.161C22.3258 11.9795 22.0557 13.2806 22.0012 14.028C21.9932 14.136 21.95 14.2385 21.8784 14.3197C21.8067 14.4009 21.7105 14.4563 21.6044 14.4776C21.5729 14.4839 21.5408 14.487 21.5086 14.4871C21.5051 14.4871 21.5016 14.487 21.4981 14.4869Z" fill="#E4E4E4"/>
<path d="M9.96227 7.76341C9.98508 7.81467 10.0038 7.86764 10.0183 7.92185L14.772 9.53998L15.6905 8.73614L17.0827 9.96624L15.5947 11.5476C15.4744 11.6753 15.3161 11.7606 15.1434 11.7905C14.9707 11.8204 14.793 11.7934 14.6369 11.7136L9.55024 9.11079C9.36629 9.22382 9.15235 9.27807 8.93687 9.26633C8.72139 9.25459 8.51459 9.17741 8.34396 9.04505C8.17334 8.9127 8.04699 8.73145 7.98171 8.5254C7.91643 8.31935 7.91532 8.09828 7.97852 7.89159C8.04173 7.68489 8.16626 7.50238 8.33554 7.36831C8.50483 7.23424 8.71084 7.15498 8.9262 7.14106C9.14155 7.12715 9.35602 7.17924 9.5411 7.29041C9.72617 7.40158 9.87308 7.56656 9.96227 7.76341V7.76341Z" fill="#FFB6B6"/>
<path d="M14.7818 9.2819C14.7822 9.21632 14.7967 9.1516 14.8243 9.09214C14.8519 9.03268 14.892 8.9799 14.9418 8.93738L16.6824 7.45216C16.9027 7.19931 17.2141 7.04429 17.5483 7.0211C17.8825 6.99791 18.2122 7.10845 18.4652 7.32846C18.7181 7.54848 18.8737 7.86002 18.8976 8.19475C18.9216 8.52948 18.8121 8.86006 18.5931 9.11401L17.3536 11.0475C17.3182 11.1027 17.2713 11.1496 17.2162 11.185C17.1611 11.2204 17.0991 11.2435 17.0343 11.2527C16.9694 11.2619 16.9034 11.257 16.8406 11.2384C16.7779 11.2197 16.7199 11.1877 16.6706 11.1446L14.9377 9.6284C14.8883 9.58528 14.8489 9.532 14.822 9.4722C14.7951 9.4124 14.7814 9.34749 14.7818 9.2819Z" fill="#E4E4E4"/>
<path d="M21.4542 11.6562C21.3962 11.6256 21.3456 11.583 21.3056 11.531C21.2656 11.4791 21.2373 11.4191 21.2226 11.3552L20.708 9.12357C20.5854 8.81129 20.5915 8.46306 20.7248 8.15525C20.8582 7.84744 21.1079 7.60516 21.4193 7.48155C21.7308 7.35794 22.0784 7.36309 22.386 7.49586C22.6936 7.62863 22.9362 7.87819 23.0604 8.18982L24.203 10.1823C24.2356 10.2392 24.2556 10.3024 24.2616 10.3677C24.2676 10.433 24.2595 10.4989 24.2378 10.5607C24.2161 10.6226 24.1814 10.6791 24.1359 10.7263C24.0905 10.7735 24.0354 10.8104 23.9745 10.8344L21.833 11.6771C21.7721 11.7011 21.7067 11.7117 21.6413 11.7081C21.5759 11.7045 21.5121 11.6868 21.4542 11.6562Z" fill="#E4E4E4"/>
<path d="M23.2965 1.28465C23.4723 0.872286 23.1699 0.347613 22.6211 0.112753C22.0722 -0.122108 21.4847 0.0217814 21.3089 0.434141C21.133 0.846501 21.4354 1.37118 21.9843 1.60604C22.5332 1.8409 23.1206 1.69701 23.2965 1.28465Z" fill="#2F2E41"/>
<path d="M21.5938 4.34976C22.181 3.27379 21.7863 1.92473 20.7121 1.33656C19.638 0.748378 18.2913 1.14381 17.7042 2.21978C17.117 3.29575 17.5118 4.64481 18.5859 5.23299C19.66 5.82117 21.0067 5.42573 21.5938 4.34976Z" fill="#FFB6B6"/>
<path d="M20.8649 0.741822H18.3296C18.1438 0.739413 17.9639 0.807483 17.826 0.932382C17.6882 1.05728 17.6025 1.22977 17.5863 1.41527C17.5798 1.51384 17.5935 1.61271 17.6266 1.70576C17.6598 1.7988 17.7116 1.88403 17.779 1.95618C17.8464 2.02832 17.9278 2.08583 18.0183 2.12515C18.1088 2.16447 18.2064 2.18476 18.305 2.18477C18.496 2.18477 18.6792 2.26078 18.8143 2.39608C18.9493 2.53138 19.0252 2.71489 19.0252 2.90624V5.86428H22.9864V2.86704C22.9864 2.58795 22.9315 2.3116 22.8249 2.05375C22.7183 1.79591 22.562 1.56163 22.365 1.36428C22.168 1.16694 21.9342 1.0104 21.6768 0.903594C21.4194 0.796792 21.1435 0.741822 20.8649 0.741822Z" fill="#2F2E41"/>
</g>
<defs>
<clipPath id="clip0_56_527">
<rect width="52" height="41" fill="white"/>
</clipPath>
</defs>
</svg>
