<svg width="49" height="41" viewBox="0 0 49 41" fill="none" xmlns="http://www.w3.org/2000/svg">
<circle cx="24" cy="20" r="17" fill="url(#paint0_linear_71_101)" fill-opacity="0.25"/>
<path d="M34.3215 9.51542H34.1016V3.48832C34.1016 2.56316 33.7344 1.6759 33.0807 1.02171C32.4271 0.36752 31.5405 1.02145e-06 30.616 0H17.8568C16.9324 -1.75104e-06 16.0458 0.367514 15.3921 1.0217C14.7384 1.67588 14.3712 2.56315 14.3712 3.48831V36.5534C14.3712 37.4786 14.7384 38.3659 15.3921 39.0201C16.0458 39.6742 16.9324 40.0418 17.8568 40.0418H30.616C31.5405 40.0418 32.427 39.6743 33.0807 39.0201C33.7344 38.3659 34.1016 37.4786 34.1016 36.5535V13.8056H34.3215L34.3215 9.51542Z" fill="#3F3D56"/>
<path d="M33.3597 3.51266V36.5291C33.3597 37.2201 33.0855 37.8827 32.5973 38.3712C32.1091 38.8598 31.447 39.1343 30.7566 39.1343H17.9362C17.2458 39.1343 16.5837 38.8598 16.0955 38.3712C15.6073 37.8827 15.3331 37.2201 15.3331 36.5291V3.51266C15.3331 2.82173 15.6073 2.15911 16.0955 1.67055C16.5837 1.18199 17.2458 0.907514 17.9362 0.907501H19.4915C19.415 1.09545 19.3859 1.2993 19.4067 1.50115C19.4275 1.70299 19.4975 1.89663 19.6106 2.06503C19.7237 2.23344 19.8764 2.37144 20.0553 2.46692C20.2342 2.56239 20.4339 2.6124 20.6366 2.61255H27.9462C28.149 2.6124 28.3486 2.56238 28.5275 2.46691C28.7064 2.37144 28.8591 2.23343 28.9722 2.06503C29.0853 1.89663 29.1554 1.70299 29.1761 1.50115C29.1969 1.2993 29.1678 1.09545 29.0914 0.907501H30.7566C31.447 0.907514 32.1091 1.18199 32.5973 1.67055C33.0855 2.15911 33.3597 2.82173 33.3597 3.51266Z" fill="white"/>
<path d="M29.2296 17.7492C29.1444 17.7938 29.0577 17.836 28.9696 17.8758C28.8893 17.9121 28.8077 17.9462 28.7249 17.9781C28.6947 17.9897 28.6639 18.0012 28.6331 18.0128C28.3897 18.1011 28.1397 18.1701 27.8854 18.2191C27.7595 18.2438 27.632 18.2633 27.5028 18.2774C27.3962 18.2895 27.2884 18.2981 27.1795 18.3033C27.102 18.3071 27.0245 18.3088 26.9464 18.3088C26.6373 18.3089 26.3288 18.28 26.025 18.2224C25.9459 18.2081 25.8684 18.191 25.7908 18.1723C25.4159 18.0824 25.0529 17.9483 24.7095 17.7729C24.6787 17.7575 24.6479 17.741 24.6171 17.725C24.5715 17.7008 24.5269 17.6755 24.4824 17.6491C24.5038 17.6194 24.5269 17.5902 24.5506 17.5616C24.8078 17.2426 25.1294 16.9813 25.4942 16.795C25.8591 16.6086 26.2591 16.5013 26.6682 16.48C27.0773 16.4587 27.4863 16.524 27.8685 16.6714C28.2508 16.8189 28.5976 17.0454 28.8865 17.336C28.9868 17.4367 29.0798 17.5445 29.1647 17.6584C29.1873 17.6881 29.2087 17.7184 29.2296 17.7492Z" fill="#70A4D6"/>
<path d="M27.0562 15.3324C28.3894 15.3324 29.4701 14.2507 29.4701 12.9165C29.4701 11.5822 28.3894 10.5006 27.0562 10.5006C25.7229 10.5006 24.6422 11.5822 24.6422 12.9165C24.6422 14.2507 25.7229 15.3324 27.0562 15.3324Z" fill="#2F2E41"/>
<path d="M27.6982 15.3358C28.5689 14.8595 28.8889 13.7669 28.4129 12.8956C27.937 12.0242 26.8453 11.704 25.9746 12.1803C25.104 12.6566 24.784 13.7492 25.2599 14.6205C25.7359 15.4919 26.8275 15.8121 27.6982 15.3358Z" fill="#A0616A"/>
<path d="M28.7243 12.6271C28.3137 12.9103 27.8264 13.061 27.3278 13.059C27.5057 13.1824 27.7082 13.2658 27.9213 13.3034C27.2584 13.4457 26.5732 13.4495 25.9086 13.3147C25.7609 13.291 25.6184 13.242 25.4873 13.1699C25.422 13.1333 25.3651 13.0835 25.3203 13.0235C25.2755 12.9635 25.2438 12.8948 25.2272 12.8218C25.1831 12.5693 25.3796 12.3399 25.5839 12.1854C25.8967 11.9523 26.2573 11.7917 26.6397 11.7153C27.0221 11.6388 27.4166 11.6483 27.7949 11.7432C28.0419 11.8071 28.2893 11.9151 28.4497 12.1135C28.6101 12.312 28.6576 12.6181 28.5048 12.8225L28.7243 12.6271Z" fill="#2F2E41"/>
<path d="M26.9464 8.4053C25.8674 8.40515 24.8178 8.75807 23.9578 9.4103C23.0978 10.0625 22.4744 10.9783 22.1827 12.018C21.8911 13.0577 21.9471 14.1643 22.3422 15.1692C22.7373 16.1741 23.4499 17.0222 24.3714 17.5842L24.4033 17.6029C24.4296 17.6188 24.456 17.6342 24.4824 17.6491C24.5269 17.6755 24.5715 17.7008 24.6171 17.725C24.6479 17.741 24.6787 17.7575 24.7095 17.7729C25.0529 17.9483 25.4159 18.0824 25.7908 18.1723C25.8684 18.191 25.9459 18.2081 26.0251 18.2224C26.3288 18.28 26.6373 18.3089 26.9464 18.3088C27.0245 18.3088 27.102 18.3071 27.1796 18.3033C27.2884 18.2983 27.3962 18.2897 27.5028 18.2774C27.632 18.2631 27.7595 18.2437 27.8854 18.2191C28.1397 18.1701 28.3897 18.1011 28.6331 18.0128C28.6639 18.0012 28.6947 17.9896 28.7249 17.9781C28.8079 17.9462 28.8895 17.9121 28.9696 17.8758C29.0575 17.8361 29.1442 17.794 29.2296 17.7492C30.0855 17.3007 30.7928 16.6132 31.2659 15.7702C31.2681 15.7658 31.2709 15.7614 31.2731 15.757C31.5255 15.3037 31.7045 14.8133 31.8036 14.3039C31.9427 13.5869 31.9216 12.8479 31.7419 12.14C31.5622 11.432 31.2283 10.7726 30.7642 10.2089C30.3 9.64526 29.717 9.19125 29.057 8.87944C28.397 8.56763 27.6763 8.40572 26.9464 8.4053H26.9464ZM31.1829 15.6926C31.1785 15.7003 31.1747 15.708 31.1703 15.7152C30.7066 16.5457 30.0092 17.2215 29.1647 17.6584C29.0806 17.7024 28.995 17.7437 28.908 17.7822C28.836 17.8147 28.7623 17.8455 28.6881 17.8741C28.6567 17.8862 28.6249 17.8983 28.593 17.9093C28.3827 17.9862 28.1672 18.048 27.9481 18.0942C27.7856 18.1288 27.6213 18.1547 27.4561 18.1718C27.3544 18.1828 27.251 18.1905 27.1471 18.1943C27.0806 18.1971 27.0135 18.1987 26.9464 18.1987C26.6473 18.1991 26.3487 18.1713 26.0547 18.1156C25.8759 18.0826 25.6991 18.0393 25.5253 17.9858C25.2605 17.9039 25.0032 17.7996 24.7562 17.6738C24.7276 17.659 24.699 17.6441 24.671 17.6287C24.6308 17.6073 24.5902 17.5853 24.5506 17.5616C24.5209 17.5451 24.4912 17.5275 24.4621 17.5099C24.445 17.5 24.428 17.4895 24.4109 17.4791C23.603 16.9825 22.9586 16.2596 22.5575 15.3998C22.1565 14.5401 22.0164 13.5814 22.1548 12.6427C22.2932 11.7041 22.704 10.8267 23.336 10.1196C23.9681 9.41239 24.7938 8.90649 25.7105 8.66465C26.6273 8.4228 27.5948 8.45565 28.4931 8.7591C29.3914 9.06256 30.1809 9.62328 30.7637 10.3717C31.3464 11.1201 31.6968 12.0233 31.7713 12.9692C31.8459 13.9151 31.6413 14.862 31.1829 15.6926H31.1829Z" fill="#3F3D56"/>
<path d="M25.8337 10.534C25.8077 10.2606 25.4731 10.0924 25.2115 10.1749C24.9498 10.2575 24.778 10.5212 24.7261 10.7908C24.7011 10.9043 24.6988 11.0217 24.7192 11.1361C24.7396 11.2506 24.7824 11.3599 24.8452 11.4577C24.9774 11.6482 25.2205 11.7671 25.4471 11.7187C25.7059 11.6635 25.8852 11.4107 25.9365 11.1509C25.9878 10.8911 25.9369 10.6233 25.886 10.3634L25.8337 10.534Z" fill="#2F2E41"/>
<path d="M29.5161 10.9244C29.4902 10.6511 29.1556 10.4828 28.8939 10.5654C28.6323 10.648 28.4605 10.9116 28.4086 11.1812C28.3836 11.2948 28.3812 11.4121 28.4016 11.5266C28.4221 11.641 28.4649 11.7503 28.5276 11.8482C28.6598 12.0387 28.9029 12.1576 29.1296 12.1092C29.3884 12.054 29.5676 11.8011 29.6189 11.5414C29.6702 11.2816 29.6193 11.0138 29.5684 10.7539L29.5161 10.9244Z" fill="#2F2E41"/>
<path d="M18.3941 15.336C18.3599 15.3359 18.3261 15.3288 18.2948 15.3149C18.2635 15.301 18.2354 15.2808 18.2124 15.2554L15.4843 12.277C15.4534 12.2433 15.4158 12.2164 15.3739 12.1979C15.332 12.1795 15.2867 12.17 15.241 12.1699H0.825153C0.606384 12.1697 0.396646 12.0826 0.241953 11.9278C0.0872598 11.7729 0.000245622 11.563 0 11.3441V6.14135C0.000245476 5.92241 0.0872598 5.71251 0.241953 5.55769C0.396646 5.40288 0.606384 5.3158 0.825153 5.31555H19.502C19.7207 5.3158 19.9305 5.40288 20.0852 5.55769C20.2398 5.71251 20.3269 5.92241 20.3271 6.14135V11.3441C20.3269 11.563 20.2398 11.7729 20.0852 11.9278C19.9305 12.0826 19.7207 12.1697 19.502 12.1699H18.9725C18.8849 12.17 18.801 12.2048 18.7391 12.2668C18.6772 12.3287 18.6424 12.4127 18.6423 12.5003V15.088C18.6426 15.138 18.6276 15.1868 18.5994 15.228C18.5712 15.2693 18.5312 15.301 18.4846 15.3189C18.4557 15.3301 18.4251 15.3359 18.3941 15.336Z" fill="white"/>
<path d="M18.3941 15.336C18.3599 15.3359 18.3261 15.3288 18.2948 15.3149C18.2635 15.301 18.2354 15.2808 18.2124 15.2554L15.4843 12.277C15.4534 12.2433 15.4158 12.2164 15.3739 12.1979C15.332 12.1795 15.2867 12.17 15.241 12.1699H0.825153C0.606384 12.1697 0.396646 12.0826 0.241953 11.9278C0.0872598 11.7729 0.000245622 11.563 0 11.3441V6.14135C0.000245476 5.92241 0.0872598 5.71251 0.241953 5.55769C0.396646 5.40288 0.606384 5.3158 0.825153 5.31555H19.502C19.7207 5.3158 19.9305 5.40288 20.0852 5.55769C20.2398 5.71251 20.3269 5.92241 20.3271 6.14135V11.3441C20.3269 11.563 20.2398 11.7729 20.0852 11.9278C19.9305 12.0826 19.7207 12.1697 19.502 12.1699H18.9725C18.8849 12.17 18.801 12.2048 18.7391 12.2668C18.6772 12.3287 18.6424 12.4127 18.6423 12.5003V15.088C18.6426 15.138 18.6276 15.1868 18.5994 15.228C18.5712 15.2693 18.5312 15.301 18.4846 15.3189C18.4557 15.3301 18.4251 15.3359 18.3941 15.336ZM0.825153 5.42559C0.635536 5.4258 0.453745 5.50128 0.319666 5.63547C0.185586 5.76965 0.110166 5.95158 0.109952 6.14135V11.3441C0.110167 11.5339 0.185587 11.7158 0.319667 11.85C0.453746 11.9842 0.635536 12.0596 0.825153 12.0599H15.241C15.302 12.0599 15.3623 12.0727 15.4181 12.0972C15.474 12.1218 15.5241 12.1577 15.5654 12.2027L18.2934 15.181C18.3121 15.2015 18.3366 15.2158 18.3636 15.2221C18.3906 15.2284 18.4189 15.2264 18.4447 15.2163C18.4705 15.2063 18.4927 15.1886 18.5084 15.1657C18.524 15.1428 18.5324 15.1158 18.5324 15.088V12.5003C18.5325 12.3835 18.5789 12.2716 18.6614 12.189C18.7439 12.1064 18.8558 12.06 18.9725 12.0599H19.502C19.6916 12.0596 19.8734 11.9842 20.0074 11.85C20.1415 11.7158 20.2169 11.5339 20.2171 11.3441V6.14135C20.2169 5.95158 20.1415 5.76965 20.0074 5.63547C19.8734 5.50128 19.6916 5.4258 19.502 5.42559H0.825153Z" fill="#3F3D56"/>
<path d="M2.02401 7.61065C2.42278 7.61065 2.74605 7.28713 2.74605 6.88804C2.74605 6.48896 2.42278 6.16544 2.02401 6.16544C1.62523 6.16544 1.30196 6.48896 1.30196 6.88804C1.30196 7.28713 1.62523 7.61065 2.02401 7.61065Z" fill="#70A4D6"/>
<path d="M18.6596 10.8865H1.66753C1.61692 10.8865 1.5668 10.8766 1.52002 10.8573C1.47325 10.8379 1.43074 10.8095 1.39494 10.7738C1.35913 10.738 1.33072 10.6955 1.31134 10.6487C1.29196 10.6019 1.28198 10.5517 1.28198 10.5011C1.28198 10.4504 1.29196 10.4003 1.31134 10.3535C1.33072 10.3067 1.35913 10.2642 1.39494 10.2284C1.43074 10.1926 1.47325 10.1642 1.52002 10.1449C1.5668 10.1256 1.61692 10.1156 1.66753 10.1157H18.6596C18.7616 10.1158 18.8594 10.1565 18.9316 10.2287C19.0037 10.301 19.0442 10.3989 19.0442 10.5011C19.0442 10.6032 19.0037 10.7012 18.9316 10.7734C18.8594 10.8457 18.7616 10.8863 18.6596 10.8865Z" fill="#E6E6E6"/>
<path d="M13.1239 9.24856H1.66753C1.61692 9.24862 1.5668 9.2387 1.52002 9.21936C1.47325 9.20002 1.43074 9.17164 1.39494 9.13585C1.35913 9.10006 1.33072 9.05755 1.31134 9.01076C1.29196 8.96397 1.28198 8.91382 1.28198 8.86317C1.28198 8.81253 1.29196 8.76237 1.31134 8.71559C1.33072 8.6688 1.35913 8.62629 1.39494 8.5905C1.43074 8.55471 1.47325 8.52633 1.52002 8.50699C1.5668 8.48765 1.61692 8.47772 1.66753 8.47778H13.1239C13.2261 8.47778 13.324 8.51839 13.3962 8.59066C13.4684 8.66294 13.509 8.76096 13.509 8.86317C13.509 8.96539 13.4684 9.06341 13.3962 9.13569C13.324 9.20796 13.2261 9.24856 13.1239 9.24856Z" fill="#E6E6E6"/>
<path d="M30.5154 32.98C30.4688 32.9621 30.4288 32.9304 30.4006 32.8892C30.3724 32.848 30.3574 32.7991 30.3577 32.7492V30.1614C30.3576 30.0739 30.3227 29.9899 30.2609 29.9279C30.199 29.866 30.1151 29.8312 30.0275 29.8311H29.4981C29.2793 29.8308 29.0695 29.7437 28.9148 29.5889C28.7602 29.4341 28.6731 29.2242 28.6729 29.0053V23.8025C28.6731 23.5836 28.7602 23.3737 28.9148 23.2189C29.0695 23.064 29.2793 22.977 29.4981 22.9767H48.1748C48.3936 22.977 48.6034 23.064 48.758 23.2189C48.9127 23.3737 48.9998 23.5836 49 23.8025V29.0053C48.9998 29.2242 48.9127 29.4341 48.758 29.5889C48.6034 29.7437 48.3936 29.8308 48.1748 29.8311H33.759C33.7133 29.8311 33.668 29.8407 33.6261 29.8591C33.5842 29.8775 33.5466 29.9045 33.5157 29.9382L30.7876 32.9166C30.7646 32.9419 30.7365 32.9622 30.7052 32.9761C30.6739 32.9899 30.6401 32.9971 30.6059 32.9971C30.5749 32.9971 30.5443 32.9913 30.5154 32.98Z" fill="white"/>
<path d="M30.5154 32.98C30.4688 32.9621 30.4288 32.9304 30.4006 32.8892C30.3724 32.848 30.3574 32.7991 30.3577 32.7492V30.1614C30.3576 30.0739 30.3227 29.9899 30.2609 29.9279C30.199 29.866 30.1151 29.8312 30.0275 29.8311H29.4981C29.2793 29.8308 29.0695 29.7437 28.9148 29.5889C28.7602 29.4341 28.6731 29.2242 28.6729 29.0053V23.8025C28.6731 23.5836 28.7602 23.3737 28.9148 23.2189C29.0695 23.064 29.2793 22.977 29.4981 22.9767H48.1748C48.3936 22.977 48.6034 23.064 48.758 23.2189C48.9127 23.3737 48.9998 23.5836 49 23.8025V29.0053C48.9998 29.2242 48.9127 29.4341 48.758 29.5889C48.6034 29.7437 48.3936 29.8308 48.1748 29.8311H33.759C33.7133 29.8311 33.668 29.8407 33.6261 29.8591C33.5842 29.8775 33.5466 29.9045 33.5157 29.9382L30.7876 32.9166C30.7646 32.9419 30.7365 32.9622 30.7052 32.9761C30.6739 32.9899 30.6401 32.9971 30.6059 32.9971C30.5749 32.9971 30.5443 32.9913 30.5154 32.98ZM29.4981 23.0868C29.3084 23.087 29.1266 23.1624 28.9926 23.2966C28.8585 23.4308 28.7831 23.6127 28.7828 23.8025V29.0053C28.7831 29.195 28.8585 29.377 28.9926 29.5112C29.1266 29.6453 29.3084 29.7208 29.4981 29.721H30.0275C30.1442 29.7212 30.2561 29.7676 30.3386 29.8502C30.4211 29.9327 30.4675 30.0447 30.4676 30.1614V32.7492C30.4676 32.7769 30.476 32.804 30.4916 32.8269C30.5073 32.8498 30.5295 32.8674 30.5553 32.8775C30.5811 32.8875 30.6094 32.8896 30.6364 32.8833C30.6634 32.877 30.6879 32.8627 30.7066 32.8422L33.4346 29.8638C33.4759 29.8189 33.526 29.783 33.5819 29.7584C33.6377 29.7338 33.698 29.7211 33.759 29.721H48.1748C48.3645 29.7208 48.5463 29.6453 48.6803 29.5111C48.8144 29.377 48.8898 29.195 48.89 29.0053V23.8025C48.8898 23.6127 48.8144 23.4308 48.6803 23.2966C48.5463 23.1624 48.3645 23.087 48.1748 23.0868H29.4981Z" fill="#3F3D56"/>
<path d="M24.6941 34.5911C23.9282 35.082 23.0408 35.3496 22.1314 35.3641C21.2221 35.3786 20.3267 35.1393 19.5455 34.6731C19.683 34.4171 19.8571 34.1826 20.0623 33.9771C20.3791 33.6586 20.7645 33.417 21.1891 33.2709C21.6137 33.1248 22.0661 33.078 22.5116 33.1342C22.957 33.1903 23.3837 33.3479 23.7588 33.5949C24.1339 33.8418 24.4475 34.1715 24.6754 34.5587C24.6814 34.5691 24.688 34.5801 24.6941 34.5911Z" fill="#70A4D6"/>
<path d="M21.9049 31.9601C23.2469 31.9601 24.3349 30.8713 24.3349 29.5282C24.3349 28.185 23.2469 27.0962 21.9049 27.0962C20.5628 27.0962 19.4748 28.185 19.4748 29.5282C19.4748 30.8713 20.5628 31.9601 21.9049 31.9601Z" fill="#2F2E41"/>
<path d="M23.713 31.2435C24.1921 30.3664 23.87 29.2666 22.9936 28.7871C22.1171 28.3076 21.0182 28.63 20.5391 29.5071C20.06 30.3843 20.3821 31.484 21.2585 31.9635C22.135 32.443 23.2339 32.1207 23.713 31.2435Z" fill="#FFB8B8"/>
<path d="M20.2256 29.2368C20.6389 29.5219 21.1295 29.6736 21.6314 29.6716C21.4524 29.7958 21.2485 29.8798 21.0339 29.9176C21.7013 30.0609 22.3911 30.0647 23.06 29.929C23.2087 29.9051 23.3522 29.8558 23.4841 29.7832C23.5499 29.7464 23.6072 29.6963 23.6523 29.6359C23.6974 29.5755 23.7293 29.5063 23.7459 29.4328C23.7904 29.1787 23.5925 28.9478 23.3869 28.7922C23.072 28.5576 22.709 28.3959 22.3241 28.3189C21.9392 28.242 21.542 28.2516 21.1612 28.3471C20.9126 28.4114 20.6635 28.5201 20.5021 28.7199C20.3406 28.9197 20.2927 29.2277 20.4466 29.4335L20.2256 29.2368Z" fill="#2F2E41"/>
<path d="M22.0536 35.4197C20.8635 35.4194 19.7134 34.9896 18.8143 34.2092C17.9152 33.4289 17.3274 32.3503 17.1587 31.1713C16.99 29.9923 17.2517 28.7919 17.8958 27.7904C18.5399 26.7889 19.5233 26.0534 20.6654 25.7187C21.8076 25.3841 23.032 25.4728 24.1141 25.9686C25.1962 26.4644 26.0634 27.334 26.5566 28.418C27.0498 29.5019 27.136 30.7274 26.7994 31.8698C26.4627 33.0122 25.7258 33.9948 24.7238 34.6374C23.927 35.1488 23.0001 35.4203 22.0536 35.4197ZM22.0536 25.6263C21.0966 25.6262 20.1611 25.9101 19.3653 26.4422C18.5696 26.9742 17.9494 27.7304 17.5831 28.6152C17.2169 29.5 17.121 30.4737 17.3077 31.413C17.4944 32.3523 17.9552 33.2152 18.6319 33.8924C19.3085 34.5696 20.1707 35.0308 21.1093 35.2176C22.0479 35.4044 23.0208 35.3085 23.9049 34.9419C24.789 34.5754 25.5446 33.9547 26.0762 33.1583C26.6079 32.362 26.8916 31.4257 26.8915 30.468C26.89 29.1844 26.3798 27.9537 25.4729 27.046C24.5659 26.1383 23.3362 25.6278 22.0536 25.6263Z" fill="#3F3D56"/>
<path d="M30.9965 25.2168C31.3952 25.2168 31.7185 24.8933 31.7185 24.4942C31.7185 24.0951 31.3952 23.7716 30.9965 23.7716C30.5977 23.7716 30.2744 24.0951 30.2744 24.4942C30.2744 24.8933 30.5977 25.2168 30.9965 25.2168Z" fill="#70A4D6"/>
<path d="M47.632 28.4926H30.64C30.5894 28.4927 30.5393 28.4827 30.4925 28.4634C30.4457 28.4441 30.4032 28.4157 30.3674 28.3799C30.3316 28.3441 30.3032 28.3016 30.2838 28.2548C30.2644 28.208 30.2544 28.1579 30.2544 28.1072C30.2544 28.0566 30.2644 28.0064 30.2838 27.9596C30.3032 27.9128 30.3316 27.8703 30.3674 27.8345C30.4032 27.7988 30.4457 27.7704 30.4925 27.751C30.5393 27.7317 30.5894 27.7218 30.64 27.7218H47.632C47.7342 27.7218 47.8321 27.7624 47.9043 27.8347C47.9765 27.907 48.0171 28.005 48.0171 28.1072C48.0171 28.2094 47.9765 28.3075 47.9043 28.3797C47.8321 28.452 47.7342 28.4926 47.632 28.4926Z" fill="#E6E6E6"/>
<path d="M42.0964 26.8547H30.64C30.5894 26.8548 30.5393 26.8448 30.4925 26.8255C30.4457 26.8062 30.4032 26.7778 30.3674 26.742C30.3316 26.7062 30.3032 26.6637 30.2838 26.6169C30.2644 26.5701 30.2544 26.52 30.2544 26.4693C30.2544 26.4187 30.2644 26.3685 30.2838 26.3217C30.3032 26.2749 30.3316 26.2324 30.3674 26.1966C30.4032 26.1608 30.4457 26.1325 30.4925 26.1131C30.5393 26.0938 30.5894 26.0839 30.64 26.0839H42.0964C42.1984 26.084 42.2963 26.1247 42.3684 26.197C42.4405 26.2692 42.481 26.3672 42.481 26.4693C42.481 26.5714 42.4405 26.6694 42.3684 26.7417C42.2963 26.8139 42.1984 26.8546 42.0964 26.8547Z" fill="#E6E6E6"/>
<path d="M30.4922 33.4726C31.2362 33.4726 31.8393 33.4056 31.8393 33.323C31.8393 33.2403 31.2362 33.1733 30.4922 33.1733C29.7482 33.1733 29.1451 33.2403 29.1451 33.323C29.1451 33.4056 29.7482 33.4726 30.4922 33.4726Z" fill="#F2F2F2"/>
<path d="M18.4524 15.8665C19.1964 15.8665 19.7995 15.7995 19.7995 15.7168C19.7995 15.6342 19.1964 15.5672 18.4524 15.5672C17.7084 15.5672 17.1053 15.6342 17.1053 15.7168C17.1053 15.7995 17.7084 15.8665 18.4524 15.8665Z" fill="#F2F2F2"/>
<defs>
<linearGradient id="paint0_linear_71_101" x1="24" y1="15.24" x2="32.5" y2="55.36" gradientUnits="userSpaceOnUse">
<stop stop-color="#6EA1D6"/>
<stop offset="1" stop-color="white"/>
</linearGradient>
</defs>
</svg>
