<svg width="21" height="20" viewBox="0 0 21 20" fill="none" xmlns="http://www.w3.org/2000/svg">
<path fill-rule="evenodd" clip-rule="evenodd" d="M5.14125 19.903C3.43828 19.903 2.05774 18.5783 2.05774 16.9442V11.0265H1.0299C0.114193 11.0265 -0.344395 9.96417 0.303108 9.34285L9.55366 0.466364C9.95505 0.081199 10.6058 0.081199 11.0072 0.466364L20.2578 9.34285C20.9053 9.96417 20.4467 11.0265 19.531 11.0265H18.5032V16.9442C18.5032 18.5783 17.1226 19.903 15.4196 19.903H5.14125ZM10.2804 2.55857L3.44626 9.11641C3.836 9.25658 4.11342 9.61733 4.11342 10.0403V16.9442C4.11342 17.4889 4.57359 17.9305 5.14125 17.9305L7.19693 17.9295L7.19693 13.9854C7.19693 12.896 8.11729 12.0128 9.25261 12.0128H11.3083C12.4436 12.0128 13.364 12.896 13.364 13.9854L13.364 17.9295L15.4196 17.9305C15.9873 17.9305 16.4475 17.4889 16.4475 16.9442V10.0403C16.4475 9.61733 16.7249 9.25658 17.1146 9.11641L10.2804 2.55857ZM11.3083 13.9854H9.2526V17.9295H11.3083V13.9854Z" fill="white"/>
</svg>
