<svg width="24" height="26" viewBox="0 0 24 26" fill="none" xmlns="http://www.w3.org/2000/svg">
<path fill-rule="evenodd" clip-rule="evenodd" d="M16.3094 4.17977V7.00046L18.1175 5.21041V1.88344L17.2134 0.97937H0.94023L0.0361627 1.88344V2.76219L0 2.78751V21.3932L0.650928 22.225L9.6916 25.335L10.8488 24.4851V22.677H17.2134L18.1175 21.7729V18.5002L16.3094 16.6921V20.8689H10.8488V5.87942L10.2521 5.04767L3.68136 2.78751H16.3094V4.17977ZM9.04068 23.1833L1.80814 20.7604V4.08936L9.04068 6.51226V23.1833V23.1833ZM20.8297 12.6961H11.8433V10.888H20.7574L17.8644 7.99494L19.1482 6.72924L23.6142 11.1773V12.461L19.112 16.9452L17.8463 15.6795L20.8297 12.6961V12.6961Z" fill="white"/>
</svg>
