<svg width="52" height="41" viewBox="0 0 52 41" fill="none" xmlns="http://www.w3.org/2000/svg">
<circle cx="26" cy="20" r="16" fill="url(#paint0_linear_71_104)" fill-opacity="0.25"/>
<path d="M25.8119 40.4355H25.2583L24.9949 38.2629L25.812 38.263L25.8119 40.4355Z" fill="#FFB8B8"/>
<path d="M25.9531 40.9814L24.1679 40.9814V40.9584C24.1679 40.8656 24.1859 40.7736 24.2208 40.6879C24.2557 40.6021 24.3069 40.5242 24.3714 40.4586C24.4359 40.3929 24.5125 40.3408 24.5968 40.3053C24.6812 40.2698 24.7715 40.2515 24.8628 40.2515H24.8628L25.9531 40.2516L25.9531 40.9814Z" fill="#2F2E41"/>
<path d="M31.9967 39.9085L31.4749 40.0965L30.5136 38.1381L31.2839 37.8607L31.9967 39.9085Z" fill="#FFB8B8"/>
<path d="M32.309 40.3752L30.6262 40.9814L30.6187 40.9598C30.5882 40.8723 30.575 40.7795 30.5798 40.6868C30.5845 40.5941 30.6072 40.5033 30.6465 40.4195C30.6858 40.3357 30.7409 40.2606 30.8087 40.1985C30.8765 40.1364 30.9557 40.0884 31.0417 40.0575L31.0417 40.0574L32.0695 39.6872L32.309 40.3752Z" fill="#2F2E41"/>
<path d="M25.7965 39.706C25.7841 39.706 25.7717 39.7049 25.7594 39.7026L25.0824 39.5774C25.0363 39.5687 24.9946 39.5442 24.9642 39.5079C24.9338 39.4716 24.9166 39.4258 24.9154 39.3781C24.817 34.742 25.3009 31.6265 26.3535 29.3934C26.3722 29.3539 26.4029 29.3215 26.441 29.301C26.4791 29.2805 26.5227 29.2729 26.5653 29.2794L28.9999 29.637C29.0444 29.6435 29.0854 29.6649 29.1167 29.6977C29.148 29.7305 29.1677 29.7729 29.1728 29.8183L29.3875 31.7434C29.3886 31.7538 29.3908 31.764 29.3939 31.774L31.7281 38.8889C31.7441 38.9407 31.7394 38.9968 31.7152 39.0451C31.6911 39.0935 31.6492 39.1303 31.5987 39.1476L30.9679 39.3615C30.9215 39.3771 30.8711 39.3751 30.826 39.3561C30.7809 39.3371 30.7439 39.3022 30.7219 39.2579L27.5644 33.2011C27.5581 33.1883 27.5481 33.1779 27.5358 33.1711C27.5234 33.1644 27.5093 33.1618 27.4954 33.1635C27.4815 33.1653 27.4685 33.1714 27.4582 33.181C27.4478 33.1906 27.4406 33.2032 27.4376 33.2171L25.9943 39.5435C25.9845 39.5895 25.9596 39.6307 25.9236 39.6603C25.8876 39.6899 25.8427 39.706 25.7965 39.706Z" fill="#2F2E41"/>
<path d="M23.8723 25.6386C23.8779 25.6634 23.8815 25.6886 23.8831 25.7139L25.8231 26.8525L26.2946 26.5763L26.7973 27.2458L26.0092 27.8172C25.9456 27.8633 25.8689 27.8872 25.7907 27.8853C25.7126 27.8834 25.6372 27.8557 25.5758 27.8064L23.5754 26.201C23.4851 26.235 23.3868 26.2402 23.2935 26.216C23.2002 26.1917 23.1164 26.1392 23.0532 26.0653C22.99 25.9914 22.9504 25.8997 22.9397 25.8024C22.929 25.7051 22.9477 25.6068 22.9932 25.5205C23.0388 25.4342 23.1091 25.3641 23.1947 25.3195C23.2804 25.2748 23.3774 25.2578 23.4729 25.2706C23.5683 25.2834 23.6576 25.3255 23.729 25.3912C23.8004 25.457 23.8503 25.5432 23.8723 25.6386Z" fill="#FFB8B8"/>
<path d="M25.8498 26.7387C25.8556 26.7096 25.8675 26.6821 25.8848 26.6581C25.902 26.6341 25.9241 26.6142 25.9496 26.5997L26.8398 26.0933C26.9581 26.0004 27.1078 25.959 27.256 25.9782C27.4042 25.9974 27.5389 26.0756 27.6305 26.1957C27.7221 26.3158 27.7632 26.4679 27.7447 26.6188C27.7263 26.7696 27.6498 26.9068 27.532 27.0004L26.8222 27.7502C26.8019 27.7716 26.7774 27.7883 26.7502 27.7992C26.723 27.81 26.6939 27.8148 26.6647 27.8132C26.6356 27.8116 26.6071 27.8036 26.5812 27.7897C26.5554 27.7759 26.5328 27.7566 26.5149 27.7331L25.8879 26.9064C25.8701 26.8829 25.8574 26.8557 25.8509 26.8268C25.8443 26.7978 25.8439 26.7678 25.8498 26.7387Z" fill="#70A4D6"/>
<path d="M27.9228 25.5251C28.5354 25.5251 29.032 25.0199 29.032 24.3967C29.032 23.7735 28.5354 23.2683 27.9228 23.2683C27.3102 23.2683 26.8137 23.7735 26.8137 24.3967C26.8137 25.0199 27.3102 25.5251 27.9228 25.5251Z" fill="#FFB8B8"/>
<path d="M29.0028 29.8777C28.9918 29.8777 28.9808 29.8768 28.97 29.8749L26.5696 29.4746C26.5425 29.4701 26.5165 29.46 26.4934 29.445C26.4702 29.43 26.4502 29.4104 26.4347 29.3873C26.4192 29.3642 26.4085 29.3382 26.4031 29.3107C26.3978 29.2833 26.398 29.2551 26.4037 29.2277L26.5205 28.6676C26.4607 28.5769 25.9739 27.788 26.5668 27.0471C26.5554 26.7838 26.6455 26.5265 26.8178 26.3298C26.9902 26.1331 27.2312 26.0126 27.4895 25.994L28.73 25.8981C28.8896 25.8858 29.0498 25.9127 29.197 25.9764C29.3443 26.0402 29.4743 26.139 29.5762 26.2646C29.6781 26.3901 29.7488 26.5387 29.7825 26.6979C29.8162 26.857 29.8118 27.0221 29.7697 27.1792L29.201 29.7169C29.1907 29.7625 29.1655 29.8032 29.1295 29.8324C29.0935 29.8616 29.0489 29.8776 29.0028 29.8777Z" fill="#70A4D6"/>
<path d="M31.2444 31.9997C31.2851 31.9406 31.3126 31.8732 31.3249 31.8021C31.3372 31.7311 31.3341 31.6581 31.3157 31.5884C31.2973 31.5188 31.2641 31.454 31.2185 31.3988C31.1729 31.3436 31.1159 31.2992 31.0516 31.2688L29.6849 26.9941L28.8929 27.3764L30.3882 31.5386C30.3452 31.652 30.3445 31.7774 30.3863 31.8912C30.4281 32.005 30.5095 32.0992 30.615 32.1561C30.7205 32.2129 30.8429 32.2284 30.9589 32.1995C31.0749 32.1707 31.1765 32.0996 31.2444 31.9997Z" fill="#FFB8B8"/>
<path d="M29.9872 27.7058L28.9355 28.029C28.9056 28.0382 28.874 28.0407 28.8431 28.0364C28.8121 28.0321 28.7824 28.021 28.756 28.004C28.7296 27.9869 28.7072 27.9643 28.6901 27.9376C28.6731 27.911 28.6619 27.8809 28.6574 27.8494L28.4977 26.747C28.4524 26.5911 28.4698 26.4232 28.546 26.2802C28.6222 26.1372 28.7509 26.0308 28.9041 25.9842C29.0573 25.9376 29.2224 25.9547 29.3632 26.0317C29.504 26.1087 29.609 26.2394 29.6553 26.3951L30.121 27.3996C30.1344 27.4284 30.1414 27.4597 30.1418 27.4915C30.1421 27.5233 30.1357 27.5548 30.123 27.5839C30.1103 27.6129 30.0916 27.6389 30.0682 27.6599C30.0447 27.6809 30.0171 27.6966 29.9872 27.7058Z" fill="#70A4D6"/>
<path d="M26.8447 24.4403C27.0909 24.5358 27.3589 24.5572 27.6168 24.5021C27.8747 24.447 28.1116 24.3177 28.2993 24.1295C28.1829 24.4422 28.2155 25.7684 28.2155 25.7684C28.2155 25.7684 29.2472 25.2701 29.3872 25.183C30.2139 24.6682 29.0737 22.4291 28.1251 22.7822C27.9645 22.842 27.8303 22.9124 27.7653 23.0734C27.6237 22.8957 27.3556 22.8571 27.1493 22.9484C26.9431 23.0397 26.7965 23.2375 26.7177 23.4518C26.6554 23.6248 26.6312 23.8095 26.6468 23.9929C26.6623 24.1764 26.7173 24.3542 26.8077 24.5137L26.8447 24.4403Z" fill="black"/>
<path d="M41.4996 26.8517C47.2988 26.8517 52 20.8407 52 13.4258C52 6.01096 47.2988 0 41.4996 0C35.7004 0 30.9993 6.01096 30.9993 13.4258C30.9993 20.8407 35.7004 26.8517 41.4996 26.8517Z" fill="#F2F2F2"/>
<path d="M49.3105 4.45844C51.5902 11.277 49.1153 19.1675 43.7825 22.0824C39.6335 24.3503 34.8153 22.9757 31.8138 18.668C34.0933 25.4867 40.2644 28.6516 45.5973 25.737C50.9302 22.8224 53.4055 14.9319 51.126 8.11321C50.6969 6.81241 50.0854 5.58145 49.3105 4.45844Z" fill="#E6E6E6"/>
<path d="M41.5285 10.6822H41.5573L42.0766 40.968H40.9804L41.5285 10.6822Z" fill="#CCCCCC"/>
<path d="M43.1985 30.5645L41.4628 31.4942L41.7047 31.9616L43.4404 31.0319L43.1985 30.5645Z" fill="#CCCCCC"/>
<path d="M8.10855 29.9824C12.5868 29.9824 16.2171 25.3596 16.2171 19.6571C16.2171 13.9547 12.5868 9.33188 8.10855 9.33188C3.63032 9.33188 0 13.9547 0 19.6571C0 25.3596 3.63032 29.9824 8.10855 29.9824Z" fill="#F2F2F2"/>
<path d="M14.1402 12.7607C15.9007 18.0045 13.9895 24.0728 9.87142 26.3145C6.66752 28.0586 2.94679 27.0015 0.628967 23.6886C2.38925 28.9326 7.15468 31.3666 11.2729 29.1251C15.391 26.8836 17.3025 20.8154 15.5422 15.5714C15.2106 14.5706 14.7384 13.6238 14.1402 12.7607Z" fill="#E6E6E6"/>
<path d="M8.13081 17.5809H8.15306L8.55407 40.968H7.70761L8.13081 17.5809Z" fill="#CCCCCC"/>
<path d="M9.42045 33.2701L8.08008 33.988L8.26687 34.349L9.60724 33.6311L9.42045 33.2701Z" fill="#CCCCCC"/>
<path d="M47.4774 41H1.31657C1.30087 41 1.28582 40.9936 1.27472 40.9824C1.26362 40.9711 1.25739 40.9558 1.25739 40.9398C1.25739 40.9238 1.26362 40.9085 1.27472 40.8972C1.28582 40.8859 1.30087 40.8796 1.31657 40.8796H47.4774C47.4931 40.8796 47.5082 40.8859 47.5193 40.8972C47.5304 40.9085 47.5366 40.9238 47.5366 40.9398C47.5366 40.9558 47.5304 40.9711 47.5193 40.9824C47.5082 40.9936 47.4931 41 47.4774 41Z" fill="#CCCCCC"/>
<path fill-rule="evenodd" clip-rule="evenodd" d="M25.4007 10.4519C25.4007 10.241 25.3413 10.0345 25.2295 9.85692C25.1177 9.67932 24.9582 9.53803 24.7699 9.44977C24.5816 9.36151 24.3724 9.32998 24.1671 9.35892C23.9617 9.38785 23.7688 9.47603 23.6112 9.61303C23.4536 9.75002 23.3379 9.93009 23.2778 10.1319C23.2176 10.3337 23.2156 10.5489 23.2719 10.7518C23.3282 10.9548 23.4405 11.1371 23.5955 11.2772C23.7505 11.4172 23.9417 11.5092 24.1464 11.5421V10.771H23.8709V10.4519H24.1464V10.2087C24.1464 9.93215 24.3084 9.77928 24.5562 9.77928C24.6375 9.78043 24.7187 9.78764 24.799 9.80085V10.0725H24.6622C24.6389 10.0693 24.6152 10.0716 24.5928 10.079C24.5705 10.0864 24.55 10.0989 24.5331 10.1155C24.5161 10.132 24.503 10.1523 24.4947 10.1747C24.4865 10.1971 24.4833 10.2211 24.4854 10.2449V10.4519H24.7862L24.7382 10.771H24.4854V11.5422C24.7406 11.5011 24.973 11.3687 25.1408 11.1688C25.3085 10.969 25.4007 10.7147 25.4007 10.4519H25.4007Z" fill="#3AA3EC"/>
<path d="M20.3842 13.7304L20.5817 13.6902C20.5209 13.7621 20.4549 13.8293 20.3842 13.8912C20.3812 13.9313 20.3812 13.9716 20.3842 14.0117C20.0049 15.6678 18.6062 14.9362 18.6062 14.9362C19.1159 14.9483 19.1593 14.7352 19.1593 14.7352C18.863 14.691 18.8038 14.4941 18.8038 14.4941C18.8303 14.5083 18.8612 14.5121 18.8903 14.5047C18.9195 14.4973 18.9449 14.4792 18.9618 14.4539C18.8749 14.4338 18.7984 14.3815 18.7472 14.3072C18.6961 14.2329 18.674 14.1419 18.6852 14.0519C18.7423 14.0938 18.8089 14.1201 18.8788 14.1283C18.8433 14.0841 18.543 13.7183 18.7247 13.5294C18.7247 13.5294 18.946 13.9313 19.5268 13.9675L19.5663 13.9595C19.5596 13.9305 19.5569 13.9008 19.5584 13.8711C19.5584 13.7591 19.6021 13.6518 19.6799 13.5726C19.7577 13.4935 19.8632 13.449 19.9733 13.449C20.2498 13.449 20.3091 13.6098 20.3091 13.6098L20.5067 13.4892C20.5027 13.4892 20.4829 13.6902 20.3842 13.7304Z" fill="#3AA3EC"/>
<path d="M25.2547 16.4107H24.4205C24.2657 16.4112 24.1174 16.4739 24.008 16.5852C23.8986 16.6965 23.8369 16.8474 23.8365 17.0048V17.8535C23.8369 18.011 23.8986 18.1618 24.008 18.2731C24.1174 18.3845 24.2657 18.4472 24.4205 18.4477H25.2547C25.4095 18.4472 25.5578 18.3845 25.6672 18.2731C25.7766 18.1618 25.8383 18.011 25.8387 17.8535V17.0048C25.8383 16.8474 25.7766 16.6965 25.6672 16.5852C25.5578 16.4739 25.4095 16.4112 25.2547 16.4107Z" fill="#3B9C44"/>
<path d="M25.3799 17.0048C25.3468 17.0048 25.3151 16.9913 25.2917 16.9675C25.2683 16.9436 25.2552 16.9113 25.2553 16.8777C25.2553 16.844 25.2685 16.8117 25.2919 16.7879C25.3153 16.7641 25.3471 16.7508 25.3802 16.7508C25.4132 16.7508 25.445 16.7641 25.4684 16.7879C25.4918 16.8117 25.505 16.844 25.505 16.8777C25.5051 16.9113 25.492 16.9436 25.4686 16.9675C25.4452 16.9913 25.4135 17.0048 25.3804 17.0048H25.3799Z" fill="white"/>
<path d="M24.8376 17.0897C24.9036 17.0897 24.9681 17.1096 25.023 17.1469C25.0779 17.1842 25.1207 17.2372 25.1459 17.2993C25.1712 17.3613 25.1778 17.4296 25.1649 17.4954C25.152 17.5613 25.1203 17.6218 25.0736 17.6693C25.0269 17.7167 24.9675 17.7491 24.9027 17.7622C24.838 17.7753 24.7709 17.7686 24.7099 17.7429C24.6489 17.7172 24.5968 17.6736 24.5601 17.6178C24.5235 17.562 24.5039 17.4963 24.5039 17.4292C24.5039 17.3846 24.5125 17.3405 24.5293 17.2993C24.5461 17.2581 24.5706 17.2206 24.6016 17.1891C24.6326 17.1576 24.6694 17.1326 24.7099 17.1155C24.7504 17.0985 24.7938 17.0897 24.8376 17.0897ZM24.8376 16.92C24.7386 16.92 24.6418 16.9498 24.5595 17.0058C24.4772 17.0617 24.413 17.1413 24.3751 17.2343C24.3373 17.3274 24.3273 17.4298 24.3467 17.5285C24.366 17.6273 24.4136 17.7181 24.4836 17.7893C24.5537 17.8605 24.6428 17.909 24.7399 17.9286C24.8371 17.9483 24.9377 17.9382 25.0292 17.8997C25.1206 17.8611 25.1988 17.7959 25.2538 17.7121C25.3088 17.6284 25.3382 17.5299 25.3382 17.4292C25.3382 17.2941 25.2854 17.1646 25.1916 17.0691C25.0977 16.9736 24.9704 16.92 24.8376 16.92V16.92Z" fill="white"/>
<path d="M22.0453 21.4374C21.7954 21.4375 21.5532 21.525 21.3592 21.6852C21.1653 21.8455 21.0314 22.0688 20.9802 22.3176C20.929 22.5664 20.9635 22.8255 21.0779 23.0515C21.1923 23.2775 21.3797 23.4566 21.6086 23.5586C21.604 23.4734 21.6104 23.388 21.6275 23.3046C21.6484 23.2146 21.7674 22.7011 21.7674 22.7011C21.7436 22.646 21.7317 22.5864 21.7324 22.5262C21.7324 22.3621 21.8257 22.2395 21.9423 22.2395C21.9631 22.2392 21.9837 22.2434 22.0028 22.2519C22.0218 22.2604 22.0389 22.2729 22.0528 22.2886C22.0667 22.3044 22.0771 22.3229 22.0834 22.3431C22.0896 22.3633 22.0915 22.3846 22.089 22.4056C22.089 22.5069 22.0254 22.6581 21.9928 22.7985C21.9863 22.8245 21.9859 22.8517 21.9917 22.8779C21.9974 22.904 22.0091 22.9285 22.0259 22.9492C22.0426 22.9699 22.0639 22.9864 22.088 22.9972C22.1122 23.008 22.1385 23.0129 22.1648 23.0115C22.3708 23.0115 22.5097 22.7422 22.5097 22.4229C22.5097 22.1802 22.3489 21.9989 22.0569 21.9989C21.9871 21.9961 21.9174 22.0078 21.8521 22.0332C21.7868 22.0587 21.7273 22.0974 21.6772 22.147C21.627 22.1966 21.5874 22.2561 21.5605 22.3218C21.5337 22.3875 21.5203 22.458 21.5211 22.5292C21.5179 22.608 21.5435 22.6853 21.593 22.7461C21.6017 22.7534 21.6079 22.7633 21.6107 22.7744C21.6135 22.7855 21.6127 22.7972 21.6086 22.8079C21.6032 22.8281 21.5915 22.8771 21.5862 22.8968C21.5853 22.9028 21.583 22.9085 21.5794 22.9134C21.5759 22.9182 21.5713 22.9222 21.566 22.9249C21.5607 22.9276 21.5548 22.929 21.5488 22.9289C21.5429 22.9289 21.5371 22.9273 21.5318 22.9245C21.3797 22.8613 21.3088 22.6922 21.3088 22.5015C21.3088 22.1872 21.5697 21.8101 22.0866 21.8101C22.5019 21.8101 22.7754 22.116 22.7754 22.4441C22.7754 22.8786 22.5379 23.2028 22.1881 23.2028C22.136 23.2041 22.0844 23.1923 22.038 23.1682C21.9916 23.1441 21.9518 23.1086 21.9224 23.0649C21.9224 23.0649 21.8592 23.3199 21.8456 23.3693C21.8205 23.4533 21.7837 23.5332 21.7363 23.6065C21.886 23.6515 22.0434 23.6632 22.1979 23.6408C22.3524 23.6185 22.5004 23.5626 22.6318 23.4769C22.7632 23.3913 22.8749 23.2779 22.9595 23.1444C23.044 23.011 23.0994 22.8606 23.1217 22.7034C23.1441 22.5463 23.133 22.3861 23.0892 22.2338C23.0454 22.0814 22.9699 21.9404 22.8678 21.8203C22.7657 21.7002 22.6394 21.6039 22.4975 21.5378C22.3556 21.4718 22.2013 21.4375 22.0453 21.4374L22.0453 21.4374Z" fill="#D82026"/>
<path d="M24.3159 12.4321C23.9297 12.4321 23.5521 12.3156 23.2309 12.0973C22.9097 11.879 22.6594 11.5687 22.5116 11.2057C22.3638 10.8426 22.3251 10.4431 22.4005 10.0577C22.4758 9.67235 22.6618 9.31833 22.935 9.04048C23.2081 8.76262 23.5561 8.5734 23.9349 8.49673C24.3137 8.42007 24.7064 8.45942 25.0633 8.60979C25.4201 8.76017 25.7251 9.01482 25.9397 9.34154C26.1543 9.66827 26.2689 10.0524 26.2689 10.4453C26.2683 10.9721 26.0623 11.4771 25.6962 11.8496C25.3301 12.222 24.8337 12.4315 24.3159 12.4321ZM24.3159 8.57897C23.9531 8.57897 23.5984 8.68843 23.2967 8.89351C22.995 9.09859 22.7598 9.39007 22.621 9.73111C22.4821 10.0721 22.4458 10.4474 22.5166 10.8094C22.5873 11.1715 22.7621 11.504 23.0186 11.7651C23.2752 12.0261 23.6021 12.2038 23.958 12.2759C24.3139 12.3479 24.6827 12.3109 25.018 12.1696C25.3532 12.0284 25.6397 11.7892 25.8413 11.4822C26.0429 11.1753 26.1505 10.8145 26.1505 10.4453C26.15 9.95052 25.9565 9.47613 25.6126 9.12624C25.2686 8.77635 24.8023 8.57953 24.3159 8.57897Z" fill="#3F3D56"/>
<path d="M19.594 16.2599C19.2077 16.2599 18.8301 16.1434 18.509 15.9251C18.1878 15.7067 17.9375 15.3964 17.7897 15.0334C17.6419 14.6704 17.6032 14.2709 17.6785 13.8855C17.7539 13.5001 17.9399 13.1461 18.213 12.8682C18.4862 12.5904 18.8341 12.4012 19.213 12.3245C19.5918 12.2478 19.9845 12.2872 20.3413 12.4376C20.6982 12.5879 21.0032 12.8426 21.2178 13.1693C21.4324 13.496 21.5469 13.8802 21.5469 14.2731C21.5464 14.7998 21.3404 15.3048 20.9743 15.6773C20.6082 16.0498 20.1118 16.2593 19.594 16.2599ZM19.594 12.4067C19.2311 12.4067 18.8764 12.5162 18.5747 12.7213C18.273 12.9263 18.0379 13.2178 17.899 13.5589C17.7602 13.8999 17.7238 14.2752 17.7946 14.6372C17.8654 14.9993 18.0402 15.3318 18.2967 15.5928C18.5533 15.8538 18.8802 16.0316 19.2361 16.1036C19.5919 16.1756 19.9608 16.1387 20.2961 15.9974C20.6313 15.8561 20.9178 15.6169 21.1194 15.31C21.321 15.0031 21.4286 14.6422 21.4286 14.2731C21.428 13.7783 21.2346 13.3039 20.8906 12.954C20.5467 12.6041 20.0804 12.4073 19.594 12.4067Z" fill="#3F3D56"/>
<path d="M24.8376 19.416C24.4513 19.416 24.0738 19.2994 23.7526 19.0811C23.4314 18.8628 23.1811 18.5525 23.0333 18.1895C22.8855 17.8264 22.8468 17.427 22.9222 17.0416C22.9975 16.6562 23.1835 16.3022 23.4567 16.0243C23.7298 15.7464 24.0778 15.5572 24.4566 15.4806C24.8354 15.4039 25.2281 15.4432 25.585 15.5936C25.9418 15.744 26.2468 15.9986 26.4614 16.3254C26.676 16.6521 26.7906 17.0362 26.7906 17.4292C26.79 17.9559 26.584 18.4609 26.2179 18.8334C25.8518 19.2058 25.3554 19.4154 24.8376 19.416ZM24.8376 15.5628C24.4748 15.5628 24.1201 15.6723 23.8184 15.8773C23.5167 16.0824 23.2815 16.3739 23.1427 16.7149C23.0038 17.056 22.9675 17.4312 23.0383 17.7933C23.109 18.1553 23.2838 18.4879 23.5403 18.7489C23.7969 19.0099 24.1238 19.1877 24.4797 19.2597C24.8356 19.3317 25.2044 19.2947 25.5397 19.1535C25.8749 19.0122 26.1614 18.773 26.363 18.4661C26.5646 18.1591 26.6722 17.7983 26.6722 17.4292C26.6717 16.9343 26.4782 16.46 26.1343 16.1101C25.7903 15.7602 25.324 15.5634 24.8376 15.5628Z" fill="#3F3D56"/>
<path d="M22.0452 24.5316C21.6589 24.5316 21.2813 24.4151 20.9602 24.1967C20.639 23.9784 20.3887 23.6681 20.2409 23.3051C20.0931 22.9421 20.0544 22.5426 20.1298 22.1572C20.2051 21.7718 20.3911 21.4178 20.6642 21.1399C20.9374 20.8621 21.2853 20.6729 21.6642 20.5962C22.043 20.5195 22.4357 20.5589 22.7925 20.7092C23.1494 20.8596 23.4544 21.1143 23.669 21.441C23.8836 21.7677 23.9981 22.1518 23.9981 22.5448C23.9976 23.0715 23.7916 23.5765 23.4255 23.949C23.0594 24.3215 22.563 24.531 22.0452 24.5316ZM22.0452 20.6784C21.6823 20.6784 21.3276 20.7879 21.0259 20.993C20.7242 21.198 20.4891 21.4895 20.3502 21.8306C20.2114 22.1716 20.175 22.5469 20.2458 22.9089C20.3166 23.271 20.4914 23.6035 20.7479 23.8645C21.0045 24.1255 21.3314 24.3033 21.6873 24.3753C22.0431 24.4473 22.412 24.4104 22.7473 24.2691C23.0825 24.1278 23.369 23.8886 23.5706 23.5817C23.7722 23.2748 23.8798 22.9139 23.8798 22.5448C23.8792 22.05 23.6858 21.5756 23.3418 21.2257C22.9979 20.8758 22.5316 20.679 22.0452 20.6784Z" fill="#3F3D56"/>
<defs>
<linearGradient id="paint0_linear_71_104" x1="26" y1="15.52" x2="34" y2="53.28" gradientUnits="userSpaceOnUse">
<stop stop-color="#6EA1D6"/>
<stop offset="1" stop-color="white"/>
</linearGradient>
</defs>
</svg>
