<svg width="35" height="41" viewBox="0 0 35 41" fill="none" xmlns="http://www.w3.org/2000/svg">
<circle cx="17" cy="20" r="14" fill="url(#paint0_linear_71_103)" fill-opacity="0.25"/>
<path d="M24.8905 34.4064L25.2367 41C25.2367 41 10.5922 27.1745 8.76781 23.1293C6.94337 19.0841 10.3776 9.07761 10.3776 9.07761L17.9973 13.2292L24.8905 34.4064Z" fill="#FFB8B8"/>
<path d="M2.43592 6.30984L0.182199 6.52275C0.182199 6.52275 -0.998326 9.0776 2.65056 9.29051L2.43592 6.30984Z" fill="#FFB8B8"/>
<path d="M2.43592 10.2486L0.182199 10.4615C0.182199 10.4615 -0.998326 13.0163 2.65056 13.2292L2.43592 10.2486Z" fill="#FFB8B8"/>
<path d="M2.43592 14.5067L0.182199 14.7196C0.182199 14.7196 -0.998326 17.2744 2.65056 17.4873L2.43592 14.5067Z" fill="#FFB8B8"/>
<path d="M3.07984 18.7647L0.82612 18.9776C0.82612 18.9776 -0.354405 21.5325 3.29448 21.7454L3.07984 18.7647Z" fill="#FFB8B8"/>
<path d="M1.33871 7.33622H1.50972V2.68944C1.50972 2.33626 1.57985 1.98653 1.71611 1.66023C1.85237 1.33394 2.05209 1.03746 2.30386 0.787719C2.55563 0.537981 2.85453 0.339879 3.18349 0.204722C3.51244 0.0695652 3.86502 2.70593e-07 4.22108 0H14.1462C14.5023 -7.21562e-07 14.8548 0.0695631 15.1838 0.204719C15.5127 0.339875 15.8117 0.537977 16.0634 0.787713C16.3152 1.03745 16.5149 1.33393 16.6512 1.66023C16.7874 1.98652 16.8576 2.33625 16.8576 2.68943V28.1821C16.8576 28.5352 16.7874 28.885 16.6512 29.2113C16.5149 29.5376 16.3152 29.8341 16.0634 30.0838C15.8117 30.3335 15.5128 30.5316 15.1838 30.6668C14.8548 30.8019 14.5023 30.8715 14.1462 30.8715H4.22109C3.502 30.8715 2.81235 30.5882 2.30387 30.0838C1.79539 29.5794 1.50973 28.8954 1.50972 28.1821V10.6439H1.33871V7.33622Z" fill="#3F3D56"/>
<path d="M4.11169 0.699709H5.40724C5.34766 0.844597 5.32492 1.00179 5.34102 1.15745C5.35711 1.31311 5.41156 1.46246 5.49955 1.59233C5.58754 1.7222 5.70638 1.82862 5.8456 1.9022C5.98483 1.97579 6.14015 2.01428 6.29791 2.01429H11.9839C12.1416 2.01428 12.297 1.97579 12.4362 1.9022C12.5754 1.82862 12.6942 1.7222 12.7822 1.59233C12.8702 1.46246 12.9247 1.31311 12.9408 1.15745C12.9569 1.00179 12.9341 0.844595 12.8745 0.699707H14.0846C14.6216 0.699706 15.1366 0.911309 15.5164 1.28796C15.8961 1.66462 16.1094 2.17547 16.1094 2.70814V28.1634C16.1094 28.4271 16.057 28.6883 15.9553 28.932C15.8535 29.1756 15.7044 29.3971 15.5164 29.5836C15.3283 29.7701 15.1051 29.918 14.8595 30.0189C14.6138 30.1199 14.3505 30.1718 14.0846 30.1718H4.11169C3.84578 30.1718 3.58248 30.1199 3.33682 30.0189C3.09116 29.918 2.86795 29.7701 2.67992 29.5836C2.4919 29.3971 2.34275 29.1757 2.241 28.932C2.13924 28.6883 2.08687 28.4271 2.08687 28.1634V2.70814C2.08687 2.44439 2.13924 2.18322 2.241 1.93955C2.34275 1.69587 2.4919 1.47447 2.67992 1.28797C2.86795 1.10146 3.09116 0.953524 3.33682 0.852591C3.58248 0.751658 3.84578 0.699709 4.11169 0.699709Z" fill="white"/>
<path d="M11.2348 7.83099H6.96147V8.85385H11.2348V7.83099Z" fill="#70A4D6"/>
<path d="M11.4383 12.2262H6.75803V13.249H11.4383V12.2262Z" fill="#E5E5E5"/>
<path d="M14.3211 14.4234H3.87521V15.4463H14.3211V14.4234Z" fill="#E5E5E5"/>
<path d="M14.3211 16.6206H3.87521V17.6435H14.3211V16.6206Z" fill="#E5E5E5"/>
<path d="M35 37.8406L22.9877 24.247L22.5584 15.518L18.051 8.06631L16.7632 4.87274C16.7632 4.87274 13.7582 5.1921 16.2265 11.2599L17.2461 14.5067C16.3271 16.4701 15.8509 18.6088 15.8509 20.7736V28.2136C15.8509 29.9655 24.2674 39.508 25.2471 40.9656L35 37.8406Z" fill="#FFB8B8"/>
<path opacity="0.2" d="M17.1165 8.69774L18.0126 8.26091L17.9821 8.19924L17.1541 8.60289L15.9043 5.3526L15.8396 5.37712L17.1165 8.69774Z" fill="black"/>
<path opacity="0.2" d="M0.19421 6.49041L0.170273 6.55487L1.49772 7.0399L1.52166 6.97545L0.19421 6.49041Z" fill="black"/>
<path opacity="0.2" d="M0.19421 10.474L0.170273 10.5385L1.49772 11.0235L1.52166 10.9591L0.19421 10.474Z" fill="black"/>
<path opacity="0.2" d="M0.19421 14.7324L0.170273 14.7968L1.49772 15.2819L1.52166 15.2174L0.19421 14.7324Z" fill="black"/>
<path opacity="0.2" d="M0.889651 18.992L0.859695 19.0539L1.50597 19.3616L1.53593 19.2997L0.889651 18.992Z" fill="black"/>
<path d="M9.10344 26.4708C10.7566 26.4708 12.0968 25.1415 12.0968 23.5016C12.0968 21.8618 10.7566 20.5325 9.10344 20.5325C7.45024 20.5325 6.11006 21.8618 6.11006 23.5016C6.11006 25.1415 7.45024 26.4708 9.10344 26.4708Z" fill="#70A4D6"/>
<path d="M8.81817 24.755L7.9223 23.6123L8.44329 23.2104L8.86747 23.7514L10.3006 22.2508L10.7798 22.7012L8.81817 24.755Z" fill="white"/>
<defs>
<linearGradient id="paint0_linear_71_103" x1="17" y1="16.08" x2="24" y2="49.12" gradientUnits="userSpaceOnUse">
<stop stop-color="#6EA1D6"/>
<stop offset="1" stop-color="white"/>
</linearGradient>
</defs>
</svg>
