<svg width="16" height="17" viewBox="0 0 16 17" fill="none" xmlns="http://www.w3.org/2000/svg">
<path d="M8 2.45627C9.16 2.45627 10.1 3.39627 10.1 4.55627C10.1 5.71627 9.16 6.65627 8 6.65627C6.84 6.65627 5.9 5.71627 5.9 4.55627C5.9 3.39627 6.84 2.45627 8 2.45627ZM8 11.4563C10.97 11.4563 14.1 12.9163 14.1 13.5563V14.6563H1.9V13.5563C1.9 12.9163 5.03 11.4563 8 11.4563ZM8 0.556274C5.79 0.556274 4 2.34627 4 4.55627C4 6.76627 5.79 8.55627 8 8.55627C10.21 8.55627 12 6.76627 12 4.55627C12 2.34627 10.21 0.556274 8 0.556274ZM8 9.55627C5.33 9.55627 0 10.8963 0 13.5563V16.5563H16V13.5563C16 10.8963 10.67 9.55627 8 9.55627Z" fill="white"/>
</svg>
