<svg width="24" height="25" viewBox="0 0 24 25" fill="none" xmlns="http://www.w3.org/2000/svg">
<path d="M19.4322 13.5684C19.4722 13.2484 19.5022 12.9284 19.5022 12.5884C19.5022 12.2484 19.4722 11.9284 19.4322 11.6084L21.5422 9.95838C21.7322 9.80838 21.7822 9.53838 21.6622 9.31838L19.6622 5.85838C19.5722 5.69838 19.4022 5.60838 19.2222 5.60838C19.1622 5.60838 19.1022 5.61838 19.0522 5.63838L16.5622 6.63838C16.0422 6.23838 15.4822 5.90838 14.8722 5.65838L14.4922 3.00838C14.4622 2.76838 14.2522 2.58838 14.0022 2.58838H10.0022C9.75216 2.58838 9.54216 2.76838 9.51216 3.00838L9.13216 5.65838C8.52216 5.90838 7.96216 6.24838 7.44216 6.63838L4.95216 5.63838C4.89216 5.61838 4.83216 5.60838 4.77216 5.60838C4.60216 5.60838 4.43216 5.69838 4.34216 5.85838L2.34216 9.31838C2.21216 9.53838 2.27216 9.80838 2.46216 9.95838L4.57216 11.6084C4.53216 11.9284 4.50216 12.2584 4.50216 12.5884C4.50216 12.9184 4.53216 13.2484 4.57216 13.5684L2.46216 15.2184C2.27216 15.3684 2.22216 15.6384 2.34216 15.8584L4.34216 19.3184C4.43216 19.4784 4.60216 19.5684 4.78216 19.5684C4.84216 19.5684 4.90216 19.5584 4.95216 19.5384L7.44216 18.5384C7.96216 18.9384 8.52216 19.2684 9.13216 19.5184L9.51216 22.1684C9.54216 22.4084 9.75216 22.5884 10.0022 22.5884H14.0022C14.2522 22.5884 14.4622 22.4084 14.4922 22.1684L14.8722 19.5184C15.4822 19.2684 16.0422 18.9284 16.5622 18.5384L19.0522 19.5384C19.1122 19.5584 19.1722 19.5684 19.2322 19.5684C19.4022 19.5684 19.5722 19.4784 19.6622 19.3184L21.6622 15.8584C21.7822 15.6384 21.7322 15.3684 21.5422 15.2184L19.4322 13.5684ZM17.4522 11.8584C17.4922 12.1684 17.5022 12.3784 17.5022 12.5884C17.5022 12.7984 17.4822 13.0184 17.4522 13.3184L17.3122 14.4484L18.2022 15.1484L19.2822 15.9884L18.5822 17.1984L17.3122 16.6884L16.2722 16.2684L15.3722 16.9484C14.9422 17.2684 14.5322 17.5084 14.1222 17.6784L13.0622 18.1084L12.9022 19.2384L12.7022 20.5884H11.3022L10.9522 18.1084L9.89216 17.6784C9.46216 17.4984 9.06216 17.2684 8.66216 16.9684L7.75216 16.2684L6.69216 16.6984L5.42216 17.2084L4.72216 15.9984L5.80216 15.1584L6.69216 14.4584L6.55216 13.3284C6.52216 13.0184 6.50216 12.7884 6.50216 12.5884C6.50216 12.3884 6.52216 12.1584 6.55216 11.8584L6.69216 10.7284L5.80216 10.0284L4.72216 9.18838L5.42216 7.97838L6.69216 8.48838L7.73216 8.90838L8.63216 8.22838C9.06216 7.90838 9.47216 7.66838 9.88216 7.49838L10.9422 7.06838L11.1022 5.93838L11.3022 4.58838H12.6922L13.0422 7.06838L14.1022 7.49838C14.5322 7.67838 14.9322 7.90838 15.3322 8.20838L16.2422 8.90838L17.3022 8.47838L18.5722 7.96838L19.2722 9.17838L18.2022 10.0284L17.3122 10.7284L17.4522 11.8584ZM12.0022 8.58838C9.79216 8.58838 8.00216 10.3784 8.00216 12.5884C8.00216 14.7984 9.79216 16.5884 12.0022 16.5884C14.2122 16.5884 16.0022 14.7984 16.0022 12.5884C16.0022 10.3784 14.2122 8.58838 12.0022 8.58838ZM12.0022 14.5884C10.9022 14.5884 10.0022 13.6884 10.0022 12.5884C10.0022 11.4884 10.9022 10.5884 12.0022 10.5884C13.1022 10.5884 14.0022 11.4884 14.0022 12.5884C14.0022 13.6884 13.1022 14.5884 12.0022 14.5884Z" fill="white"/>
</svg>
