<svg width="19" height="20" viewBox="0 0 19 20" fill="none" xmlns="http://www.w3.org/2000/svg">
<path d="M5.93752 18.3125C6.59335 18.3125 7.12502 17.7808 7.12502 17.125C7.12502 16.4692 6.59335 15.9375 5.93752 15.9375C5.28168 15.9375 4.75002 16.4692 4.75002 17.125C4.75002 17.7808 5.28168 18.3125 5.93752 18.3125Z" fill="white"/>
<path d="M14.25 18.3125C14.9058 18.3125 15.4375 17.7808 15.4375 17.125C15.4375 16.4692 14.9058 15.9375 14.25 15.9375C13.5942 15.9375 13.0625 16.4692 13.0625 17.125C13.0625 17.7808 13.5942 18.3125 14.25 18.3125Z" fill="white"/>
<path d="M16.625 4.65625H3.45563L2.96875 2.1625C2.94099 2.02637 2.86637 1.90428 2.75788 1.81749C2.6494 1.7307 2.51391 1.6847 2.375 1.6875H0V2.875H1.88813L4.15625 14.275C4.18401 14.4111 4.25863 14.5332 4.36712 14.62C4.4756 14.7068 4.61109 14.7528 4.75 14.75H15.4375V13.5625H5.23687L4.75 11.1875H15.4375C15.5748 11.1909 15.7089 11.1465 15.8172 11.0621C15.9254 10.9777 16.0011 10.8583 16.0312 10.7244L17.2188 5.38062C17.2386 5.29253 17.2382 5.20105 17.2174 5.11316C17.1966 5.02527 17.156 4.94328 17.0988 4.87342C17.0415 4.80357 16.9691 4.74771 16.887 4.71007C16.8049 4.67244 16.7153 4.65403 16.625 4.65625ZM14.9625 10H4.52437L3.69312 5.84375H15.8828L14.9625 10Z" fill="white"/>
</svg>
