<svg width="34" height="41" viewBox="0 0 34 41" fill="none" xmlns="http://www.w3.org/2000/svg">
<path opacity="0.3" d="M29.2084 35.9023L17.0045 28.5789L18.7765 27.5449L30.9805 34.8691L29.2084 35.9023Z" fill="#D6D8E5"/>
<path d="M29.1857 34.0885L20.2872 28.9012C19.5335 28.4617 18.922 27.2833 18.922 26.2682V1.2074C18.9228 0.193063 19.5335 -0.273515 20.2872 0.164363L29.1857 5.35331C29.9394 5.79201 30.5501 6.97116 30.5501 7.9855V33.0463C30.5501 34.0614 29.9394 34.528 29.1857 34.0885Z" fill="#B1B4C4"/>
<path d="M29.3375 34.5403L30.0433 34.1803L29.3668 33.0102L29.3375 34.5403Z" fill="#B1B4C4"/>
<path d="M18.7838 0.416119L19.4327 0.0725403L19.302 1.03768L18.7838 0.416119Z" fill="#B1B4C4"/>
<path d="M28.6179 34.3747L19.7194 29.1923C18.9657 28.7528 18.355 27.5736 18.355 26.5593V1.49359C18.355 0.479251 18.9657 0.0126721 19.7194 0.452191L28.6179 5.6395C29.3716 6.07901 29.9823 7.25735 29.9823 8.27251V33.3333C29.9823 34.3484 29.3716 34.8142 28.6179 34.3747Z" fill="#616E84"/>
<path d="M29.8865 8.33646V33.3964C29.8865 34.4124 29.2758 34.8773 28.5222 34.4386L25.03 32.405L23.9458 31.772L19.622 29.2521C18.8683 28.8118 18.2576 27.6335 18.2576 26.6183V1.55836C18.2576 0.542382 18.8683 0.0766235 19.622 0.515322L28.5238 5.70263C29.2774 6.14297 29.8865 7.32048 29.8865 8.33646Z" fill="#20232D"/>
<path d="M29.2458 8.08224V32.4895C29.2458 33.1045 28.8194 33.3546 28.2916 33.0463L25.5092 31.4243L25.2655 31.2816L25.1843 31.2332L24.5834 30.8831L22.843 29.8696L22.1218 29.4489L21.831 29.2792L19.8567 28.1263C19.3297 27.8188 18.9017 27.0709 18.9017 26.4559V2.05034C18.9017 1.43534 19.3297 1.18688 19.8567 1.49356L23.3302 3.51896V3.52634C23.3302 4.0044 23.664 4.58659 24.0741 4.82603C24.4843 5.06547 24.8181 4.87195 24.8181 4.39307C24.8181 4.39307 24.8181 4.38487 24.8181 4.38159L28.2924 6.40781C28.8194 6.71777 29.2458 7.46643 29.2458 8.08224Z" fill="#8DC2F3"/>
<path d="M27.7879 13.8206L20.3935 9.51235C20.3092 9.45121 20.2403 9.37103 20.1922 9.27819C20.1441 9.18536 20.1182 9.08246 20.1165 8.97771V3.7863C20.1165 3.57966 20.2408 3.48536 20.3935 3.57474L27.7879 7.88465C27.8722 7.94578 27.9411 8.02597 27.9892 8.1188C28.0373 8.21163 28.0632 8.31454 28.0649 8.41929V13.6123C28.0649 13.8149 27.9374 13.91 27.7879 13.8206Z" fill="#F0F0F0"/>
<path d="M27.9536 16.197L20.227 11.6927C20.1935 11.6684 20.166 11.6366 20.1468 11.5997C20.1277 11.5629 20.1173 11.522 20.1165 11.4803V10.7628C20.1165 10.6808 20.1661 10.6423 20.227 10.6808L27.9536 15.1851C27.9876 15.2094 28.0153 15.2414 28.0347 15.2786C28.054 15.3158 28.0644 15.3571 28.0649 15.3991V16.1166C28.0649 16.1953 28.0186 16.2363 27.9536 16.197Z" fill="white"/>
<path d="M26.7801 17.1998L20.227 13.3803C20.1934 13.3557 20.1659 13.3236 20.1467 13.2864C20.1276 13.2493 20.1172 13.2081 20.1165 13.1662V12.4479C20.1165 12.3659 20.1661 12.3282 20.227 12.3659L26.7801 16.1863C26.814 16.2106 26.8418 16.2426 26.8611 16.2798C26.8805 16.317 26.8908 16.3583 26.8914 16.4003V17.1178C26.8914 17.1974 26.8418 17.2359 26.7801 17.1998Z" fill="white"/>
<path d="M25.7446 18.2806L20.231 15.067C20.1973 15.0426 20.1697 15.0105 20.1505 14.9733C20.1314 14.9361 20.1211 14.8949 20.1206 14.853V14.1355C20.1206 14.0535 20.1701 14.0149 20.231 14.0535L25.7446 17.2646C25.7784 17.289 25.8059 17.3211 25.8251 17.3583C25.8443 17.3955 25.8546 17.4367 25.8551 17.4786V18.1961C25.851 18.2789 25.8015 18.3166 25.7446 18.2806Z" fill="white"/>
<path d="M27.8245 27.9623L20.0979 23.458C20.064 23.4337 20.0363 23.4016 20.017 23.3644C19.9976 23.3272 19.9872 23.286 19.9866 23.244V22.5265C19.9866 22.4445 20.0362 22.406 20.0979 22.4445L27.8245 26.9487C27.8584 26.9731 27.8861 27.0052 27.9054 27.0424C27.9247 27.0796 27.9352 27.1208 27.9358 27.1628V27.8803C27.9374 27.9623 27.8863 27.9983 27.8245 27.9623Z" fill="white"/>
<path d="M26.651 28.9652L20.0979 25.1448C20.064 25.1206 20.0363 25.0887 20.017 25.0517C19.9976 25.0146 19.9872 24.9735 19.9866 24.9316V24.2133C19.9866 24.1313 20.0362 24.0927 20.0979 24.1313L26.651 27.9508C26.6846 27.9754 26.7121 28.0075 26.7313 28.0447C26.7504 28.0818 26.7608 28.123 26.7615 28.1648V28.8832C26.7615 28.9627 26.7119 29.0012 26.651 28.9652Z" fill="white"/>
<path d="M25.6107 30.0459L20.0979 26.8323C20.064 26.808 20.0363 26.7759 20.017 26.7387C19.9976 26.7015 19.9872 26.6603 19.9866 26.6183V25.9008C19.9866 25.8188 20.0362 25.7803 20.0979 25.8188L25.6107 29.0283C25.6446 29.0526 25.6724 29.0846 25.6917 29.1218C25.7111 29.159 25.7214 29.2003 25.7219 29.2423V29.9598C25.7219 30.0442 25.6724 30.082 25.6107 30.0459Z" fill="white"/>
<path d="M29.2457 8.69726V14.6488L28.9623 14.4905C28.8779 14.4291 28.8089 14.3487 28.7606 14.2556C28.7124 14.1625 28.6864 14.0593 28.6846 13.9543V8.76614C28.6846 8.5595 28.8096 8.46438 28.9623 8.55458L29.2457 8.69726Z" fill="#353C4C"/>
<path d="M20.7265 21.4499L20.1719 21.1268C20.1377 21.1021 20.1097 21.0696 20.0903 21.032C20.0708 20.9944 20.0603 20.9527 20.0598 20.9103V18.2265C20.0598 18.1445 20.1101 18.1059 20.171 18.1445L20.7257 18.4725C20.7594 18.4968 20.7869 18.5288 20.8061 18.5658C20.8252 18.6028 20.8356 18.6439 20.8362 18.6856V21.3728C20.837 21.4474 20.7907 21.4843 20.7265 21.4499Z" fill="white"/>
<path d="M21.9276 22.1518L21.3729 21.8287C21.3392 21.8043 21.3116 21.7722 21.2924 21.735C21.2732 21.6978 21.263 21.6566 21.2625 21.6147V18.2863C21.2625 18.2043 21.312 18.1658 21.3729 18.2043L21.9276 18.5274C21.9613 18.5519 21.989 18.584 22.0083 18.6211C22.0276 18.6583 22.0381 18.6995 22.0389 18.7414V22.069C22.0421 22.1502 21.9918 22.1879 21.9276 22.1518Z" fill="white"/>
<path d="M23.1352 22.8545L22.5773 22.5306C22.5437 22.5063 22.5161 22.4743 22.497 22.4373C22.4778 22.4003 22.4675 22.3592 22.4668 22.3174V19.9591C22.4668 19.8771 22.5164 19.8386 22.5773 19.8771L23.132 20.2002C23.1659 20.2245 23.1936 20.2566 23.2129 20.2938C23.2323 20.331 23.2426 20.3722 23.2432 20.4142V22.7717C23.2465 22.8521 23.1969 22.8898 23.1352 22.8545Z" fill="white"/>
<path d="M24.3406 23.5564L23.7859 23.2334C23.752 23.209 23.7243 23.1769 23.705 23.1397C23.6857 23.1026 23.6753 23.0613 23.6746 23.0193V19.0776C23.6746 18.9956 23.7242 18.9571 23.7859 18.9956L24.3406 19.3195C24.3743 19.3439 24.4019 19.376 24.4211 19.4132C24.4403 19.4504 24.4505 19.4916 24.451 19.5335V23.4753C24.451 23.554 24.4015 23.5925 24.3406 23.5564Z" fill="white"/>
<path d="M25.5448 24.2584L24.9901 23.9353C24.9563 23.9109 24.9286 23.8788 24.9093 23.8417C24.8899 23.8045 24.8795 23.7632 24.8789 23.7213V20.3937C24.8789 20.3117 24.9292 20.2732 24.9901 20.3117L25.5448 20.6348C25.5785 20.6593 25.606 20.6914 25.6252 20.7286C25.6443 20.7658 25.6546 20.8069 25.6553 20.8488V24.1739C25.6553 24.2567 25.6057 24.2944 25.5448 24.2584Z" fill="white"/>
<path d="M27.9537 25.6663L27.3998 25.3383C27.3659 25.314 27.3382 25.2819 27.3189 25.2447C27.2995 25.2075 27.2891 25.1663 27.2886 25.1243V21.7984C27.2886 21.7164 27.3381 21.6778 27.3998 21.7164L27.9537 22.0395C27.9876 22.0638 28.0154 22.0958 28.0347 22.133C28.0541 22.1702 28.0644 22.2115 28.065 22.2535V25.581C28.065 25.6614 28.0187 25.6991 27.9537 25.6663Z" fill="white"/>
<path d="M26.7493 24.9611L26.1946 24.638C26.161 24.6135 26.1335 24.5813 26.1144 24.5442C26.0952 24.507 26.0849 24.4659 26.0842 24.424V19.8673C26.0842 19.7853 26.1337 19.7476 26.1946 19.7853L26.7493 20.1084C26.7832 20.1327 26.8109 20.1648 26.8302 20.202C26.8495 20.2392 26.8599 20.2804 26.8606 20.3224V24.8791C26.8606 24.9586 26.811 24.9964 26.7493 24.9611Z" fill="white"/>
<path d="M24.2739 4.57756C24.3842 4.51325 24.3844 4.30501 24.2743 4.11244C24.1642 3.91987 23.9855 3.8159 23.8752 3.8802C23.7648 3.94451 23.7647 4.15275 23.8748 4.34532C23.9849 4.53789 24.1636 4.64187 24.2739 4.57756Z" fill="#2B303F"/>
<path opacity="0.1" d="M24.0741 4.36604C24.0401 4.34316 24.0119 4.31254 23.9917 4.27666C23.9716 4.24077 23.96 4.20062 23.958 4.15941C23.958 4.08315 24.0116 4.05281 24.0766 4.09053C24.1109 4.11324 24.1396 4.14375 24.1601 4.17964C24.1807 4.21552 24.1927 4.25577 24.1951 4.29717C24.1927 4.37342 24.1391 4.40458 24.0741 4.36604Z" fill="white"/>
<path d="M30.2488 11.6337C30.1765 11.6763 30.1173 11.6337 30.1173 11.5336V10.4676C30.1181 10.418 30.1305 10.3692 30.1533 10.3252C30.1762 10.2812 30.2089 10.2432 30.2488 10.2142C30.3211 10.1724 30.3804 10.2142 30.3804 10.3151V11.3811C30.3794 11.4306 30.367 11.4792 30.3441 11.5231C30.3213 11.5669 30.2887 11.6048 30.2488 11.6337Z" fill="#757B89"/>
<path d="M30.2488 13.3844C30.1765 13.427 30.1173 13.3844 30.1173 13.2843V12.2183C30.1181 12.1687 30.1305 12.1199 30.1533 12.0759C30.1762 12.0319 30.2089 11.9939 30.2488 11.9649C30.3211 11.9231 30.3804 11.9649 30.3804 12.0658V13.1318C30.3794 13.1813 30.367 13.2299 30.3441 13.2738C30.3213 13.3176 30.2887 13.3555 30.2488 13.3844Z" fill="#757B89"/>
<path opacity="0.3" d="M11.9367 25.713C14.1269 25.713 15.9024 24.6781 15.9024 23.4014C15.9024 22.1248 14.1269 21.0899 11.9367 21.0899C9.74658 21.0899 7.9711 22.1248 7.9711 23.4014C7.9711 24.6781 9.74658 25.713 11.9367 25.713Z" fill="#D6D8E5"/>
<path d="M12.3331 25.1104C14.5233 25.1104 16.2987 24.0754 16.2987 22.7988C16.2987 21.5221 14.5233 20.4872 12.3331 20.4872C10.1429 20.4872 8.36745 21.5221 8.36745 22.7988C8.36745 24.0754 10.1429 25.1104 12.3331 25.1104Z" fill="#DD990E"/>
<path d="M8.36827 22.834V21.7812L9.15197 22.4855L8.36827 22.834Z" fill="#DD990E"/>
<path d="M16.2987 21.8082V22.7988L15.8983 23.2284L15.7018 22.0944L16.2987 21.8082Z" fill="#DD990E"/>
<path d="M12.3331 24.1198C14.5233 24.1198 16.2987 23.0849 16.2987 21.8082C16.2987 20.5316 14.5233 19.4966 12.3331 19.4966C10.1429 19.4966 8.36744 20.5316 8.36744 21.8082C8.36744 23.0849 10.1429 24.1198 12.3331 24.1198Z" fill="#F9CB07"/>
<path d="M15.1674 21.8804C15.1268 22.2691 14.8523 22.6528 14.3407 22.9513C13.2321 23.5975 11.434 23.5975 10.3255 22.9513C9.81465 22.6528 9.53934 22.2691 9.50036 21.8804C9.45244 21.4245 9.72775 20.9587 10.3255 20.611C11.434 19.964 13.2321 19.964 14.3407 20.611C14.9384 20.9587 15.2145 21.4245 15.1674 21.8804Z" fill="#CC8B09"/>
<path d="M15.1675 21.8804C15.1269 22.269 14.8524 22.6528 14.3407 22.9513C13.2322 23.5974 11.4341 23.5974 10.3255 22.9513C9.8147 22.6528 9.53938 22.269 9.5004 21.8804C9.53938 21.4909 9.8147 21.1071 10.3255 20.8086C11.4341 20.1617 13.2322 20.1617 14.3407 20.8086C14.8524 21.1071 15.1269 21.4909 15.1675 21.8804Z" fill="#E8A30A"/>
<path d="M12.2917 21.3384C12.2569 21.3383 12.2221 21.341 12.1878 21.3466C12.1407 21.3539 12.0887 21.363 12.031 21.3753C11.9734 21.3876 11.9125 21.4031 11.8499 21.422C11.7889 21.4403 11.7295 21.4633 11.6721 21.4909L12.1285 21.7566L12.2097 21.727C12.3258 21.6885 12.4355 21.6549 12.5345 21.6278C12.6313 21.6018 12.7303 21.5853 12.8302 21.5786C12.921 21.5728 13.0122 21.5791 13.1014 21.5975C13.1929 21.6171 13.2806 21.6514 13.3613 21.6992C13.4404 21.7396 13.5081 21.7997 13.5578 21.8738C13.5743 21.9003 13.5853 21.9298 13.5902 21.9607C13.5951 21.9915 13.5937 22.0231 13.5863 22.0534C13.567 22.1212 13.5303 22.1826 13.4799 22.2313C13.417 22.2941 13.3469 22.3492 13.2712 22.3953L13.5611 22.5643L13.4035 22.6569L13.1112 22.4864C12.9716 22.5549 12.8258 22.6098 12.6759 22.6504C12.5187 22.6944 12.3581 22.7249 12.1959 22.7414L12.0465 22.4683C12.0891 22.4673 12.1317 22.464 12.174 22.4585C12.2384 22.4509 12.3023 22.4399 12.3656 22.4257C12.4355 22.4101 12.5102 22.3912 12.5881 22.3683C12.6643 22.3466 12.7386 22.3192 12.8107 22.2863L12.3575 22.0214L12.2982 22.0427L12.2365 22.0616C12.122 22.0993 12.0172 22.1288 11.9222 22.151C11.8345 22.1716 11.745 22.1836 11.655 22.1871C11.5759 22.19 11.4967 22.1825 11.4195 22.1649C11.3426 22.1458 11.2687 22.1157 11.2002 22.0755C11.1255 22.0359 11.0605 21.9799 11.0102 21.9115C10.9739 21.86 10.9559 21.7976 10.959 21.7344C10.9657 21.6685 10.9921 21.6062 11.0345 21.5557C11.0868 21.4896 11.149 21.4324 11.2189 21.3859L10.9501 21.2293L11.1084 21.1375L11.374 21.2924C11.499 21.2302 11.6302 21.1815 11.7655 21.1473C11.8941 21.1143 12.0249 21.0905 12.1569 21.076L12.2917 21.3384ZM11.5169 21.8213C11.5768 21.8558 11.6457 21.8707 11.7143 21.864C11.8066 21.853 11.8975 21.8324 11.9855 21.8025L11.5592 21.5565C11.4024 21.6573 11.3886 21.7459 11.5169 21.8213ZM13.0137 21.9468C12.9485 21.9111 12.8736 21.8976 12.8001 21.9083C12.7006 21.9225 12.6026 21.9452 12.5069 21.9763L12.9309 22.2223C13.1079 22.11 13.1372 22.019 13.0137 21.9468Z" fill="#CC8B09"/>
<path d="M12.0464 22.4683C12.0464 22.4576 12.0464 22.3133 12.0464 22.3133L12.2202 22.4265L12.1447 22.5437L12.0464 22.4683Z" fill="#CC8B09"/>
<path d="M13.5651 22.5659V22.4109L13.1875 22.4396L13.4043 22.5889L13.5651 22.5659Z" fill="#CC8B09"/>
<path d="M13.5968 21.996V21.8394L13.3141 21.9427L13.5968 21.996Z" fill="#CC8B09"/>
<path d="M12.4257 21.9878L12.5191 21.8968L12.8504 22.128L12.8301 22.1961C12.8301 22.1961 12.5824 22.0911 12.5743 22.0854C12.5662 22.0796 12.4257 21.9878 12.4257 21.9878Z" fill="#CC8B09"/>
<path d="M11.5599 21.4991L12.0001 21.75L12.0894 21.6844C12.0894 21.6844 12.0342 21.6204 12.0302 21.6147C11.9911 21.569 11.945 21.53 11.8937 21.4991C11.8604 21.4925 11.6501 21.3982 11.6501 21.3982L11.5599 21.4991Z" fill="#CC8B09"/>
<path d="M12.2917 21.3383V21.1834L12.0894 21.1169L12.0464 21.2383L12.0569 21.2941L12.2917 21.3383Z" fill="#CC8B09"/>
<path d="M10.9501 21.226V21.071L11.184 21.0965L11.1084 21.2473L10.9501 21.226Z" fill="#CC8B09"/>
<path d="M10.9581 21.7533V21.5893H11.2261L11.1604 21.7336L11.045 21.8656L10.9581 21.7533Z" fill="#CC8B09"/>
<path d="M12.2917 21.1834C12.2569 21.1833 12.2221 21.186 12.1878 21.1916C12.1407 21.1981 12.0887 21.208 12.031 21.2203C11.9734 21.2326 11.9125 21.2481 11.8499 21.267C11.7891 21.2853 11.7297 21.3081 11.6721 21.3351L12.1285 21.6007L12.2097 21.572C12.3258 21.5327 12.4355 21.4999 12.5345 21.4728C12.6313 21.4468 12.7303 21.4303 12.8302 21.4236C12.921 21.4179 13.0121 21.424 13.1014 21.4417C13.1929 21.4616 13.2807 21.4962 13.3613 21.5442C13.4404 21.5846 13.5081 21.6447 13.5578 21.7188C13.5743 21.7453 13.5853 21.7748 13.5902 21.8057C13.5951 21.8365 13.5937 21.8681 13.5863 21.8984C13.567 21.9659 13.5303 22.0271 13.4799 22.0755C13.4172 22.1386 13.3471 22.1936 13.2712 22.2395L13.5627 22.4109L13.4052 22.5027L13.1128 22.3322C12.9733 22.4011 12.8275 22.456 12.6775 22.4962C12.5203 22.54 12.3597 22.5701 12.1975 22.5864L12.0448 22.31C12.0875 22.309 12.13 22.3057 12.1723 22.3002C12.23 22.2936 12.2933 22.2822 12.364 22.2674C12.4347 22.2526 12.5086 22.2321 12.5865 22.2092C12.6626 22.1875 12.737 22.1601 12.809 22.1272L12.3559 21.8631L12.2966 21.8836L12.2349 21.9033C12.1206 21.941 12.0159 21.9706 11.9206 21.9919C11.8329 22.0129 11.7434 22.0249 11.6534 22.028C11.5743 22.0309 11.4951 22.0234 11.4179 22.0058C11.3407 21.9874 11.2668 21.9573 11.1986 21.9164C11.1238 21.8769 11.0589 21.8208 11.0085 21.7524C10.9723 21.7009 10.9542 21.6385 10.9574 21.5753C10.9642 21.5092 10.9905 21.4466 11.0329 21.3957C11.0854 21.3302 11.1476 21.2732 11.2173 21.2268L10.9501 21.0743L11.1084 20.9816L11.374 21.1374C11.499 21.0752 11.6302 21.0265 11.7655 20.9923C11.8941 20.9593 12.0249 20.9355 12.1569 20.921L12.2917 21.1834ZM11.5169 21.6655C11.5765 21.7008 11.6456 21.716 11.7143 21.709C11.8066 21.698 11.8975 21.6774 11.9855 21.6475L11.5592 21.4015C11.4027 21.5026 11.3886 21.5906 11.5169 21.6655ZM13.0137 21.7918C12.9486 21.7557 12.8736 21.7422 12.8001 21.7533C12.6993 21.7663 12.5998 21.7885 12.5029 21.8197L12.9268 22.0657C13.1082 21.9547 13.1372 21.8634 13.0137 21.7918Z" fill="#F9CA06"/>
<path d="M12.3331 23.8139C14.5233 23.8139 16.2987 22.779 16.2987 21.5024C16.2987 20.2257 14.5233 19.1908 12.3331 19.1908C10.1429 19.1908 8.36745 20.2257 8.36745 21.5024C8.36745 22.779 10.1429 23.8139 12.3331 23.8139Z" fill="#DD990E"/>
<path d="M8.36827 21.5368V20.4839L9.15197 21.1883L8.36827 21.5368Z" fill="#DD990E"/>
<path d="M16.2987 20.5118V21.5023L15.8983 21.9312L15.7018 20.7971L16.2987 20.5118Z" fill="#DD990E"/>
<path d="M12.3331 22.8234C14.5233 22.8234 16.2987 21.7884 16.2987 20.5118C16.2987 19.2352 14.5233 18.2002 12.3331 18.2002C10.1429 18.2002 8.36744 19.2352 8.36744 20.5118C8.36744 21.7884 10.1429 22.8234 12.3331 22.8234Z" fill="#F9CB07"/>
<path d="M15.1674 20.5823C15.1268 20.9718 14.8523 21.3547 14.3407 21.6532C13.2321 22.2994 11.434 22.2994 10.3255 21.6532C9.81465 21.3547 9.53934 20.9718 9.50036 20.5823C9.45244 20.1264 9.72775 19.6606 10.3255 19.3129C11.434 18.666 13.2321 18.666 14.3407 19.3129C14.9384 19.6614 15.2145 20.1272 15.1674 20.5823Z" fill="#CC8B09"/>
<path d="M15.1675 20.5823C15.1269 20.9718 14.8524 21.3547 14.3407 21.6532C13.2322 22.2994 11.4341 22.2994 10.3255 21.6532C9.8147 21.3547 9.53938 20.9718 9.5004 20.5823C9.53938 20.1928 9.8147 19.8099 10.3255 19.5114C11.4341 18.8644 13.2322 18.8644 14.3407 19.5114C14.8524 19.8107 15.1269 20.1936 15.1675 20.5823Z" fill="#E8A30A"/>
<path d="M12.2917 20.0411C12.2569 20.0414 12.2221 20.0444 12.1878 20.0501C12.1407 20.0567 12.0887 20.0657 12.031 20.078C11.9734 20.0903 11.9125 20.1067 11.8499 20.1255C11.789 20.1435 11.7295 20.1663 11.6721 20.1936L12.1285 20.4593L12.2097 20.4306C12.3258 20.3912 12.4355 20.3584 12.5345 20.3314C12.6313 20.3053 12.7303 20.2888 12.8302 20.2822C12.921 20.2761 13.0122 20.2821 13.1014 20.3002C13.1929 20.3201 13.2807 20.3547 13.3613 20.4027C13.4404 20.4429 13.508 20.5027 13.5578 20.5765C13.5743 20.6032 13.5853 20.6328 13.5902 20.6638C13.595 20.6948 13.5937 20.7265 13.5863 20.7569C13.567 20.8245 13.5303 20.8856 13.4799 20.9341C13.417 20.9969 13.3469 21.0519 13.2712 21.0981L13.5611 21.267L13.4035 21.3588L13.1112 21.1883C12.9716 21.2568 12.8258 21.3117 12.6759 21.3523C12.5186 21.3957 12.3581 21.4258 12.1959 21.4425L12.0432 21.1661C12.0858 21.1651 12.1284 21.1618 12.1707 21.1563C12.2284 21.1489 12.2917 21.1382 12.3624 21.1227C12.433 21.1071 12.5069 21.0882 12.5849 21.0653C12.661 21.0436 12.7354 21.0162 12.8074 20.9833L12.3543 20.7192L12.295 20.7397L12.2332 20.7586C12.1301 20.7938 12.0252 20.8236 11.9189 20.848C11.8312 20.8685 11.7418 20.8806 11.6518 20.884C11.5726 20.887 11.4935 20.8795 11.4162 20.8619C11.3392 20.8431 11.2653 20.813 11.197 20.7725C11.1222 20.733 11.0573 20.6769 11.0069 20.6085C10.9707 20.5566 10.9527 20.494 10.9558 20.4306C10.9625 20.3647 10.9888 20.3023 11.0313 20.2518C11.0836 20.1861 11.1458 20.1291 11.2156 20.0829L10.9501 19.9263L11.1084 19.8336L11.374 19.9886C11.499 19.9264 11.6302 19.8777 11.7655 19.8435C11.8942 19.8109 12.025 19.787 12.1569 19.7721L12.2917 20.0411ZM11.5169 20.5241C11.5766 20.5591 11.6457 20.574 11.7143 20.5667C11.8067 20.5565 11.8977 20.5359 11.9855 20.5052L11.5592 20.2592C11.4027 20.3609 11.3886 20.4492 11.5169 20.5241ZM13.0137 20.6503C12.9487 20.6139 12.8736 20.6003 12.8001 20.6118C12.6993 20.6249 12.5999 20.6469 12.5029 20.6774L12.9268 20.9234C13.1082 20.813 13.1372 20.722 13.0137 20.6503Z" fill="#CC8B09"/>
<path d="M12.0464 21.1711C12.0464 21.1596 12.0464 21.0153 12.0464 21.0153L12.2202 21.1284L12.1447 21.2465L12.0464 21.1711Z" fill="#CC8B09"/>
<path d="M13.5651 21.2695V21.1137L13.1875 21.1432L13.4043 21.2924L13.5651 21.2695Z" fill="#CC8B09"/>
<path d="M13.5968 20.6996V20.5421L13.3141 20.6454L13.5968 20.6996Z" fill="#CC8B09"/>
<path d="M12.4257 20.6914L12.5191 20.6003L12.8504 20.8316L12.8301 20.8996C12.8301 20.8996 12.5824 20.7939 12.5743 20.7881C12.5662 20.7824 12.4257 20.6914 12.4257 20.6914Z" fill="#CC8B09"/>
<path d="M11.5599 20.2018L12.0001 20.4536L12.0894 20.388C12.0894 20.388 12.0342 20.324 12.0302 20.3175C11.9909 20.272 11.9448 20.233 11.8937 20.2018C11.8604 20.1953 11.6501 20.101 11.6501 20.101L11.5599 20.2018Z" fill="#CC8B09"/>
<path d="M12.2917 20.0419V19.8861L12.0894 19.8197L12.0464 19.9419L12.0569 19.9976L12.2917 20.0419Z" fill="#CC8B09"/>
<path d="M10.9501 19.9296V19.7738L11.184 19.7992L11.1084 19.9501L10.9501 19.9296Z" fill="#CC8B09"/>
<path d="M10.9581 20.456V20.292H11.2261L11.1604 20.4363L11.045 20.5684L10.9581 20.456Z" fill="#CC8B09"/>
<path d="M12.2917 19.8861C12.2569 19.886 12.2221 19.8888 12.1878 19.8943C12.1406 19.9017 12.0887 19.9107 12.031 19.923C11.9733 19.9353 11.9124 19.9509 11.8499 19.9698C11.7889 19.988 11.7295 20.0111 11.672 20.0386L12.1285 20.3043L12.2097 20.2748C12.3258 20.2363 12.4355 20.2026 12.5345 20.1756C12.6313 20.1495 12.7303 20.1331 12.8301 20.1264C12.921 20.1206 13.0122 20.1269 13.1014 20.1452C13.1929 20.1649 13.2806 20.1992 13.3613 20.2469C13.4418 20.2857 13.5112 20.3447 13.5627 20.4183C13.5792 20.4448 13.5902 20.4743 13.5951 20.5052C13.5999 20.536 13.5986 20.5676 13.5911 20.5979C13.5715 20.6672 13.5336 20.7298 13.4815 20.7791C13.4188 20.8422 13.3487 20.8972 13.2728 20.9431L13.5627 21.112L13.4051 21.2047L13.1128 21.0341C12.9732 21.1027 12.8274 21.1576 12.6775 21.1981C12.5203 21.2422 12.3598 21.2726 12.1975 21.2891L12.0448 21.012C12.0875 21.0109 12.13 21.0077 12.1723 21.0021C12.2367 20.9945 12.3007 20.9836 12.364 20.9693C12.4338 20.9538 12.5085 20.9349 12.5865 20.9119C12.6626 20.8903 12.737 20.8629 12.809 20.8299L12.3559 20.5651L12.2966 20.5864L12.2349 20.6053C12.1203 20.643 12.0156 20.6725 11.9206 20.6946C11.8328 20.7152 11.7434 20.7273 11.6534 20.7307C11.5742 20.7336 11.4951 20.7262 11.4178 20.7086C11.3409 20.6895 11.2671 20.6594 11.1986 20.6192C11.1239 20.5796 11.0589 20.5236 11.0085 20.4552C10.9722 20.4037 10.9542 20.3413 10.9574 20.2781C10.9641 20.2122 10.9904 20.1498 11.0329 20.0993C11.0851 20.0333 11.1473 19.976 11.2173 19.9296L10.9484 19.773L11.1068 19.6811L11.3724 19.8361C11.4974 19.7739 11.6286 19.7252 11.7638 19.691C11.8925 19.658 12.0233 19.6341 12.1553 19.6196L12.2917 19.8861ZM11.5169 20.3691C11.5768 20.4035 11.6457 20.4184 11.7143 20.4117C11.8066 20.4012 11.8976 20.3805 11.9855 20.3502L11.5592 20.1042C11.4024 20.2051 11.3886 20.2937 11.5169 20.3691ZM13.0137 20.4946C12.9484 20.4589 12.8736 20.4454 12.8001 20.456C12.6993 20.4695 12.5999 20.4917 12.5029 20.5224L12.9268 20.7684C13.1079 20.6577 13.1371 20.5667 13.0137 20.4946Z" fill="#F9CA06"/>
<path d="M12.5897 22.3437C14.7799 22.3437 16.5554 21.3088 16.5554 20.0321C16.5554 18.7555 14.7799 17.7206 12.5897 17.7206C10.3995 17.7206 8.62406 18.7555 8.62406 20.0321C8.62406 21.3088 10.3995 22.3437 12.5897 22.3437Z" fill="#DD990E"/>
<path d="M8.62575 20.0674V19.0137L9.40865 19.7189L8.62575 20.0674Z" fill="#DD990E"/>
<path d="M16.5553 19.0415V20.0321L16.1549 20.4618L15.9584 19.3277L16.5553 19.0415Z" fill="#DD990E"/>
<path d="M12.5897 21.3531C14.7799 21.3531 16.5554 20.3182 16.5554 19.0416C16.5554 17.7649 14.7799 16.73 12.5897 16.73C10.3996 16.73 8.62407 17.7649 8.62407 19.0416C8.62407 20.3182 10.3996 21.3531 12.5897 21.3531Z" fill="#F9CB07"/>
<path d="M15.4241 19.1129C15.3835 19.5024 15.109 19.8862 14.5981 20.1846C13.4888 20.83 11.6915 20.83 10.5821 20.1846C10.0713 19.8862 9.79681 19.5024 9.75702 19.1129C9.7091 18.6578 9.98523 18.192 10.5821 17.8444C11.6915 17.1974 13.4888 17.1974 14.5981 17.8444C15.1951 18.192 15.4712 18.6578 15.4241 19.1129Z" fill="#CC8B09"/>
<path d="M15.4241 19.1129C15.3835 19.5024 15.109 19.8861 14.5981 20.1846C13.4888 20.83 11.6915 20.83 10.5821 20.1846C10.0713 19.8861 9.79681 19.5024 9.75701 19.1129C9.79681 18.7242 10.0713 18.3404 10.5821 18.042C11.6915 17.395 13.4888 17.395 14.5981 18.042C15.1057 18.3404 15.3835 18.7242 15.4241 19.1129Z" fill="#E8A30A"/>
<path d="M12.5483 18.5717C12.5135 18.5716 12.4787 18.5744 12.4443 18.5799C12.3981 18.5865 12.3453 18.5963 12.2876 18.6086C12.2299 18.6209 12.169 18.6365 12.1073 18.6553C12.0463 18.6738 11.9866 18.6966 11.9286 18.7234L12.3851 18.9899L12.4663 18.9604C12.5816 18.9218 12.6912 18.8882 12.7911 18.8612C12.8876 18.8351 12.9863 18.8186 13.0859 18.812C13.177 18.8062 13.2685 18.8125 13.358 18.8308C13.4492 18.8505 13.5367 18.8848 13.6171 18.9325C13.6962 18.9729 13.7638 19.033 13.8136 19.1072C13.83 19.1337 13.841 19.1632 13.846 19.194C13.8511 19.2248 13.85 19.2563 13.8428 19.2867C13.8229 19.3544 13.7859 19.4157 13.7356 19.4647C13.6729 19.5273 13.6031 19.5824 13.5277 19.6287L13.8177 19.7976L13.6593 19.8903L13.3669 19.7197C13.2273 19.7882 13.0816 19.8432 12.9316 19.8837C12.7748 19.9278 12.6145 19.9583 12.4525 19.9747L12.299 19.6976C12.3419 19.6965 12.3847 19.6932 12.4273 19.6877C12.4914 19.68 12.5551 19.6691 12.6181 19.6549C12.6888 19.6393 12.7627 19.6205 12.8407 19.5975C12.9169 19.5755 12.9916 19.5481 13.064 19.5155L12.61 19.2515L12.5507 19.272L12.489 19.2917C12.3745 19.3294 12.2706 19.3589 12.1755 19.3802C12.0875 19.401 11.9978 19.4134 11.9075 19.4171C11.8284 19.4201 11.7492 19.4123 11.672 19.3942C11.595 19.3757 11.5211 19.3459 11.4527 19.3056C11.3783 19.266 11.3136 19.2099 11.2635 19.1416C11.2265 19.0904 11.2084 19.0277 11.2123 18.9645C11.219 18.8985 11.245 18.8359 11.2871 18.7849C11.3407 18.7185 11.4042 18.6609 11.4755 18.6143L11.2075 18.4594L11.3658 18.3675L11.6322 18.5225C11.7571 18.46 11.8884 18.4113 12.0237 18.3774C12.1523 18.3442 12.2831 18.3204 12.4151 18.306L12.5483 18.5717ZM11.776 19.0539C11.8356 19.0888 11.9046 19.104 11.9733 19.0973C12.0659 19.0863 12.157 19.0657 12.2454 19.0358L11.8182 18.7898C11.6601 18.8915 11.646 18.9795 11.776 19.0539ZM13.2735 19.1801C13.2082 19.1446 13.1334 19.1311 13.0599 19.1416C12.9588 19.1547 12.8591 19.1769 12.7619 19.208L13.1858 19.454C13.3656 19.3431 13.394 19.2518 13.2711 19.1801H13.2735Z" fill="#CC8B09"/>
<path d="M12.303 19.7008C12.3079 19.6893 12.303 19.5458 12.303 19.5458L12.4776 19.659L12.4021 19.7763L12.303 19.7008Z" fill="#CC8B09"/>
<path d="M13.8217 19.7992V19.6443L13.4441 19.673L13.6609 19.8222L13.8217 19.7992Z" fill="#CC8B09"/>
<path d="M13.8534 19.2293V19.0727L13.5707 19.176L13.8534 19.2293Z" fill="#CC8B09"/>
<path d="M12.6839 19.2211L12.7781 19.1301L13.1094 19.3613L13.0883 19.4294C13.0883 19.4294 12.8447 19.3244 12.8333 19.3179L12.6839 19.2211Z" fill="#CC8B09"/>
<path d="M11.8174 18.7316L12.2568 18.9833L12.3469 18.9177C12.3469 18.9177 12.2917 18.8538 12.2876 18.8472C12.2478 18.802 12.2015 18.763 12.1504 18.7316C12.1179 18.7259 11.9067 18.6316 11.9067 18.6316L11.8174 18.7316Z" fill="#CC8B09"/>
<path d="M12.5483 18.5717V18.4167L12.3469 18.3503L12.303 18.4716L12.3136 18.5274L12.5483 18.5717Z" fill="#CC8B09"/>
<path d="M11.2067 18.4594V18.3044L11.4414 18.3298L11.365 18.4799L11.2067 18.4594Z" fill="#CC8B09"/>
<path d="M11.2156 18.9866V18.8226H11.4836L11.4186 18.9669L11.3017 19.0965L11.2156 18.9866Z" fill="#CC8B09"/>
<path d="M12.5483 18.4167C12.5135 18.4162 12.4787 18.4189 12.4443 18.4249C12.3981 18.4315 12.3453 18.4413 12.2876 18.4536C12.2299 18.4659 12.169 18.4815 12.1073 18.5003C12.0463 18.5188 11.9866 18.5416 11.9286 18.5684L12.3851 18.8341L12.4663 18.8054C12.5816 18.766 12.6912 18.7332 12.7911 18.7062C12.8876 18.6801 12.9863 18.6636 13.0859 18.657C13.177 18.6509 13.2685 18.657 13.358 18.675C13.4492 18.6949 13.5367 18.7295 13.6171 18.7775C13.6962 18.8179 13.7638 18.878 13.8136 18.9522C13.83 18.9787 13.841 19.0082 13.846 19.039C13.8511 19.0698 13.85 19.1013 13.8428 19.1317C13.823 19.1992 13.786 19.2602 13.7356 19.3089C13.6731 19.3717 13.6033 19.4268 13.5277 19.4729L13.8177 19.6418L13.6593 19.7336L13.3669 19.5631C13.2273 19.6316 13.0816 19.6865 12.9316 19.7271C12.7747 19.7705 12.6144 19.8007 12.4525 19.8173L12.299 19.5409C12.3419 19.5399 12.3847 19.5366 12.4273 19.5311C12.4841 19.5245 12.5475 19.513 12.6181 19.4975C12.6888 19.4819 12.7627 19.463 12.8407 19.4401C12.917 19.4184 12.9917 19.391 13.064 19.3581L12.61 19.094L12.5507 19.1145L12.489 19.1334C12.3861 19.1686 12.2815 19.1984 12.1755 19.2228C12.0875 19.2433 11.9978 19.2554 11.9075 19.2588C11.8284 19.2617 11.7493 19.2542 11.672 19.2367C11.5949 19.2183 11.5209 19.1882 11.4527 19.1473C11.3781 19.108 11.3133 19.0519 11.2635 18.9833C11.2264 18.9319 11.2083 18.8689 11.2123 18.8054C11.2188 18.7396 11.2449 18.6772 11.2871 18.6266C11.3395 18.5611 11.4017 18.5041 11.4714 18.4577L11.2075 18.3044L11.3658 18.2117L11.6322 18.3675C11.7568 18.3043 11.8882 18.2556 12.0237 18.2224C12.1524 18.1894 12.2832 18.1653 12.4151 18.1502L12.5483 18.4167ZM11.776 18.8989C11.8356 18.9339 11.9047 18.9488 11.9733 18.9415C12.066 18.9313 12.1572 18.9107 12.2454 18.88L11.8182 18.634C11.6601 18.7357 11.646 18.824 11.776 18.8989ZM13.2711 19.0243C13.2059 18.9884 13.131 18.9749 13.0575 18.9858C12.9565 18.9989 12.8567 19.0208 12.7595 19.0514L13.1834 19.2974C13.3648 19.1875 13.394 19.0965 13.2711 19.0243Z" fill="#F9CA06"/>
<path d="M12.5045 20.8742C14.6946 20.8742 16.4701 19.8393 16.4701 18.5627C16.4701 17.286 14.6946 16.2511 12.5045 16.2511C10.3143 16.2511 8.53881 17.286 8.53881 18.5627C8.53881 19.8393 10.3143 20.8742 12.5045 20.8742Z" fill="#DD990E"/>
<path d="M8.53962 18.5971V17.5442L9.32333 18.2486L8.53962 18.5971Z" fill="#DD990E"/>
<path d="M16.4701 17.5721V18.5627L16.0698 18.9915L15.8732 17.8575L16.4701 17.5721Z" fill="#DD990E"/>
<path d="M12.5045 19.8837C14.6946 19.8837 16.4701 18.8487 16.4701 17.5721C16.4701 16.2955 14.6946 15.2605 12.5045 15.2605C10.3143 15.2605 8.53881 16.2955 8.53881 17.5721C8.53881 18.8487 10.3143 19.8837 12.5045 19.8837Z" fill="#F9CB07"/>
<path d="M15.3388 17.6434C15.2982 18.0329 15.0237 18.4159 14.512 18.7143C13.4035 19.3605 11.6054 19.3605 10.4968 18.7143C9.98519 18.4159 9.71069 18.0329 9.67171 17.6434C9.62379 17.1875 9.89911 16.7217 10.4968 16.3741C11.6054 15.7271 13.4035 15.7271 14.512 16.3741C15.1098 16.7217 15.3859 17.1875 15.3388 17.6434Z" fill="#CC8B09"/>
<path d="M15.3388 17.6434C15.2981 18.0329 15.0236 18.4159 14.512 18.7143C13.4034 19.3605 11.6054 19.3605 10.4968 18.7143C9.98517 18.4159 9.71067 18.0329 9.67169 17.6434C9.71067 17.2539 9.98517 16.8702 10.4968 16.5725C11.6054 15.9255 13.4034 15.9255 14.512 16.5725C15.0245 16.8702 15.2981 17.2539 15.3388 17.6434Z" fill="#E8A30A"/>
<path d="M12.463 17.1014C12.4282 17.1017 12.3934 17.1047 12.3591 17.1104C12.3119 17.117 12.26 17.126 12.2015 17.1383C12.143 17.1506 12.0837 17.1662 12.0212 17.1851C11.9604 17.2037 11.9009 17.2267 11.8433 17.2539L12.299 17.5196L12.3802 17.4909C12.4963 17.4516 12.6059 17.4188 12.705 17.3917C12.8017 17.3657 12.9008 17.3492 13.0006 17.3425C13.0914 17.3364 13.1827 17.3425 13.2719 17.3605C13.3634 17.3805 13.4511 17.4151 13.5318 17.463C13.6109 17.5032 13.6785 17.563 13.7283 17.6369C13.7448 17.6635 13.7557 17.6932 13.7606 17.7242C13.7655 17.7552 13.7642 17.7868 13.7567 17.8173C13.7375 17.8848 13.7008 17.946 13.6503 17.9944C13.5875 18.0573 13.5174 18.1123 13.4416 18.1584L13.7316 18.3281L13.574 18.42L13.2808 18.2494C13.1417 18.3185 12.9962 18.3734 12.8463 18.4134C12.6892 18.4575 12.5286 18.4879 12.3664 18.5044L12.2137 18.2281C12.2563 18.2271 12.2989 18.2238 12.3412 18.2183C12.3988 18.2109 12.4622 18.2002 12.5328 18.1846C12.6035 18.1691 12.6774 18.1502 12.7554 18.1272C12.8315 18.1056 12.9059 18.0782 12.9779 18.0452L12.5247 17.7812L12.4654 17.8017L12.4037 17.8206C12.2892 17.8583 12.1844 17.8886 12.0894 17.9099C12.0017 17.9305 11.9122 17.9425 11.8222 17.946C11.7428 17.9489 11.6634 17.9414 11.5859 17.9239C11.5091 17.9051 11.4355 17.875 11.3674 17.8345C11.2927 17.7949 11.2277 17.7389 11.1774 17.6705C11.1412 17.6186 11.1232 17.556 11.1262 17.4926C11.1327 17.4267 11.1588 17.3644 11.2009 17.3138C11.2537 17.2482 11.3161 17.1912 11.3861 17.1449L11.1173 16.9883L11.2749 16.8956L11.5412 17.0506C11.6663 16.9883 11.7975 16.9397 11.9327 16.9054C12.0614 16.8728 12.1922 16.849 12.3241 16.8341L12.463 17.1014ZM11.6874 17.5844C11.7474 17.6192 11.8167 17.6341 11.8856 17.627C11.978 17.6168 12.069 17.5962 12.1568 17.5655L11.7296 17.3195C11.5737 17.4204 11.5591 17.5098 11.6874 17.5844ZM13.185 17.7123C13.1198 17.6765 13.0448 17.6633 12.9714 17.6746C12.8704 17.6877 12.7706 17.7097 12.6733 17.7402L13.0981 17.9862C13.2795 17.8741 13.3084 17.7828 13.185 17.7123Z" fill="#CC8B09"/>
<path d="M12.2177 18.2314C12.2218 18.2199 12.2177 18.0756 12.2177 18.0756L12.3915 18.1887L12.316 18.3068L12.2177 18.2314Z" fill="#CC8B09"/>
<path d="M13.7356 18.3298V18.174L13.3588 18.2035L13.5757 18.3527L13.7356 18.3298Z" fill="#CC8B09"/>
<path d="M13.7681 17.7599V17.6024L13.4855 17.7058L13.7681 17.7599Z" fill="#CC8B09"/>
<path d="M12.5978 17.7517L12.692 17.6606L13.0234 17.8919L13.0031 17.9599C13.0031 17.9599 12.7554 17.8542 12.7473 17.8484C12.7392 17.8427 12.5978 17.7517 12.5978 17.7517Z" fill="#CC8B09"/>
<path d="M11.7313 17.2621L12.1706 17.5139L12.2608 17.4483C12.2608 17.4483 12.2056 17.3835 12.2015 17.3778C12.1621 17.3322 12.1158 17.2931 12.0643 17.2621C12.0318 17.2556 11.8206 17.1613 11.8206 17.1613L11.7313 17.2621Z" fill="#CC8B09"/>
<path d="M12.463 17.1014V16.9465L12.2608 16.88L12.2177 17.0022L12.2283 17.058L12.463 17.1014Z" fill="#CC8B09"/>
<path d="M11.1214 16.9899V16.8341L11.3553 16.8595L11.2797 17.0104L11.1214 16.9899Z" fill="#CC8B09"/>
<path d="M11.1262 17.5163V17.3523H11.395L11.3292 17.4966L11.2164 17.6303L11.1262 17.5163Z" fill="#CC8B09"/>
<path d="M12.463 16.9465C12.4282 16.9464 12.3934 16.9491 12.3591 16.9547C12.3119 16.962 12.26 16.9711 12.2015 16.9834C12.143 16.9957 12.0837 17.0112 12.0212 17.0301C11.9602 17.0483 11.9008 17.0714 11.8433 17.099L12.299 17.3647L12.3802 17.3351C12.4963 17.2966 12.6059 17.263 12.705 17.2359C12.8017 17.2099 12.9008 17.1934 13.0006 17.1867C13.0915 17.1809 13.1827 17.1873 13.2719 17.2056C13.3634 17.2252 13.4511 17.2595 13.5318 17.3073C13.6108 17.3479 13.6783 17.408 13.7283 17.4819C13.7448 17.5084 13.7558 17.5379 13.7607 17.5688C13.7656 17.5996 13.7642 17.6312 13.7567 17.6615C13.7375 17.7293 13.7008 17.7907 13.6503 17.8394C13.5873 17.902 13.5172 17.9571 13.4416 18.0034L13.7316 18.1724L13.574 18.265L13.2808 18.0945C13.1416 18.1631 12.9961 18.2181 12.8463 18.2585C12.6892 18.3025 12.5286 18.333 12.3664 18.3495L12.2137 18.0723C12.2563 18.0713 12.2989 18.068 12.3412 18.0625C12.4056 18.0549 12.4696 18.0439 12.5329 18.0297C12.6027 18.0141 12.6774 17.9952 12.7554 17.9723C12.8315 17.9506 12.9059 17.9232 12.9779 17.8903L12.5288 17.6303L12.4695 17.6517L12.4078 17.6705C12.2933 17.7082 12.1885 17.7378 12.0935 17.7599C12.0058 17.7804 11.9163 17.7925 11.8263 17.796C11.7469 17.7988 11.6675 17.7914 11.59 17.7738C11.5133 17.7547 11.4397 17.7246 11.3715 17.6845C11.2968 17.6449 11.2318 17.5888 11.1815 17.5205C11.1452 17.4689 11.1271 17.4065 11.1303 17.3433C11.1368 17.2775 11.1628 17.2152 11.205 17.1646C11.2578 17.0987 11.3202 17.0415 11.3902 16.9948L11.1214 16.8382L11.2789 16.7464L11.5453 16.9014C11.6703 16.8391 11.8015 16.7904 11.9367 16.7562C12.0654 16.7232 12.1962 16.6994 12.3282 16.6849L12.463 16.9465ZM11.6874 17.4294C11.7476 17.4638 11.8168 17.4787 11.8856 17.4721C11.9779 17.4611 12.0688 17.4405 12.1568 17.4106L11.7296 17.1646C11.5737 17.2654 11.5591 17.354 11.6874 17.4294ZM13.185 17.5549C13.1198 17.5192 13.0449 17.5057 12.9714 17.5164C12.8703 17.5298 12.7706 17.552 12.6733 17.5828L13.0981 17.8288C13.2792 17.7181 13.3084 17.6303 13.185 17.5549Z" fill="#F9CA06"/>
<path opacity="0.3" d="M29.565 40.1302C31.7552 40.1302 33.5306 39.0953 33.5306 37.8187C33.5306 36.542 31.7552 35.5071 29.565 35.5071C27.3748 35.5071 25.5994 36.542 25.5994 37.8187C25.5994 39.0953 27.3748 40.1302 29.565 40.1302Z" fill="#D6D8E5"/>
<path d="M30.0343 39.6743C32.2245 39.6743 33.9999 38.6394 33.9999 37.3627C33.9999 36.0861 32.2245 35.0511 30.0343 35.0511C27.8441 35.0511 26.0687 36.0861 26.0687 37.3627C26.0687 38.6394 27.8441 39.6743 30.0343 39.6743Z" fill="#DD990E"/>
<path d="M26.0703 37.398V36.3443L26.8532 37.0495L26.0703 37.398Z" fill="#DD990E"/>
<path d="M34 36.3722V37.3628L33.5996 37.7924L33.4038 36.6584L34 36.3722Z" fill="#DD990E"/>
<path d="M30.0344 38.6838C32.2245 38.6838 34 37.6488 34 36.3722C34 35.0955 32.2245 34.0606 30.0344 34.0606C27.8442 34.0606 26.0687 35.0955 26.0687 36.3722C26.0687 37.6488 27.8442 38.6838 30.0344 38.6838Z" fill="#F9CB07"/>
<path d="M32.8686 36.4435C32.8288 36.833 32.5535 37.2168 32.0427 37.5152C30.9333 38.1606 29.136 38.1606 28.0267 37.5152C27.5158 37.2168 27.2413 36.833 27.2015 36.4435C27.1536 35.9884 27.4298 35.5226 28.0267 35.175C29.136 34.528 30.9333 34.528 32.0427 35.175C32.6404 35.5226 32.9157 35.9884 32.8686 36.4435Z" fill="#CC8B09"/>
<path d="M32.8687 36.4435C32.8289 36.833 32.5536 37.2168 32.0427 37.5153C30.9334 38.1606 29.1361 38.1606 28.0267 37.5153C27.5159 37.2168 27.2414 36.833 27.2016 36.4435C27.2414 36.0549 27.5159 35.6711 28.0267 35.3726C29.1361 34.7256 30.9334 34.7256 32.0427 35.3726C32.5536 35.6703 32.8289 36.0549 32.8687 36.4435Z" fill="#E8A30A"/>
<path d="M29.993 35.9023C29.9581 35.9022 29.9234 35.905 29.889 35.9105C29.8427 35.9171 29.7899 35.9269 29.7323 35.9392C29.6746 35.9515 29.6137 35.9671 29.552 35.986C29.4909 36.0044 29.4312 36.0272 29.3733 36.054L29.8297 36.3205L29.9109 36.291C30.0263 36.2524 30.1359 36.2188 30.2358 36.1918C30.3322 36.1657 30.431 36.1492 30.5306 36.1426C30.6217 36.1368 30.7132 36.1431 30.8027 36.1614C30.894 36.1807 30.9815 36.215 31.0617 36.2631C31.1409 36.3035 31.2085 36.3636 31.2583 36.4378C31.2747 36.4643 31.2857 36.4938 31.2907 36.5246C31.2957 36.5554 31.2946 36.5869 31.2875 36.6173C31.2678 36.6851 31.2308 36.7464 31.1803 36.7953C31.1177 36.8581 31.0479 36.9132 30.9724 36.9593L31.2672 37.1298L31.1048 37.2225L30.8124 37.0519C30.6729 37.1206 30.5271 37.1756 30.3771 37.2159C30.2203 37.2602 30.06 37.2904 29.8979 37.3061L29.7444 37.0298C29.7874 37.0287 29.8302 37.0255 29.8728 37.02C29.9369 37.0123 30.0006 37.0014 30.0636 36.9872C30.1343 36.9716 30.2082 36.9527 30.2861 36.9289C30.3625 36.9073 30.4372 36.8799 30.5095 36.8469L30.0555 36.5829L29.9962 36.6034L29.9345 36.6231C29.82 36.6608 29.716 36.6903 29.621 36.7116C29.5331 36.7326 29.4433 36.7447 29.353 36.7477C29.2739 36.7514 29.1946 36.7439 29.1175 36.7256C29.0407 36.7073 28.967 36.6774 28.899 36.637C28.8241 36.5977 28.7592 36.5416 28.709 36.473C28.672 36.4218 28.6539 36.3592 28.6578 36.2959C28.6645 36.2299 28.6905 36.1674 28.7325 36.1163C28.785 36.0508 28.8472 35.9938 28.9169 35.9474L28.6481 35.7908L28.8064 35.699L29.0728 35.8539C29.1977 35.7914 29.329 35.7428 29.4643 35.7088C29.5929 35.6756 29.7237 35.6518 29.8557 35.6375L29.993 35.9023ZM29.2182 36.3845C29.2779 36.4194 29.3469 36.4346 29.4155 36.4279C29.5081 36.4169 29.5992 36.3963 29.6876 36.3664L29.2604 36.1204C29.1039 36.2216 29.0899 36.3096 29.2182 36.3845ZM30.7158 36.5107C30.6506 36.4748 30.5756 36.4613 30.5022 36.4722C30.401 36.4853 30.3013 36.5075 30.2041 36.5386L30.628 36.7846C30.8094 36.6737 30.8387 36.5824 30.7158 36.5107Z" fill="#CC8B09"/>
<path d="M29.7476 37.0314C29.7525 37.0199 29.7476 36.8764 29.7476 36.8764L29.9222 36.9896L29.8467 37.1069L29.7476 37.0314Z" fill="#CC8B09"/>
<path d="M31.2663 37.1298V36.9749L30.8887 37.0036L31.1055 37.1528L31.2663 37.1298Z" fill="#CC8B09"/>
<path d="M31.2979 36.5599V36.4033L31.0153 36.5066L31.2979 36.5599Z" fill="#CC8B09"/>
<path d="M30.1302 36.5518L30.2244 36.4608L30.5557 36.692L30.5346 36.7601C30.5346 36.7601 30.291 36.6551 30.2796 36.6485L30.1302 36.5518Z" fill="#CC8B09"/>
<path d="M29.262 36.0622L29.7013 36.314L29.7915 36.2484C29.7915 36.2484 29.7363 36.1844 29.7322 36.1778C29.6924 36.1326 29.6461 36.0937 29.595 36.0622C29.5625 36.0565 29.3513 35.9622 29.3513 35.9622L29.262 36.0622Z" fill="#CC8B09"/>
<path d="M29.9929 35.9023V35.7473L29.7914 35.6809L29.7476 35.8023L29.7581 35.858L29.9929 35.9023Z" fill="#CC8B09"/>
<path d="M28.6512 35.79V35.635L28.8859 35.6604L28.8096 35.8105L28.6512 35.79Z" fill="#CC8B09"/>
<path d="M28.6601 36.3172V36.1532H28.9281L28.8632 36.2975L28.7495 36.4287L28.6601 36.3172Z" fill="#CC8B09"/>
<path d="M29.993 35.7473C29.9581 35.7468 29.9233 35.7496 29.889 35.7555C29.8427 35.7621 29.7899 35.7711 29.7323 35.7834C29.6746 35.7957 29.6137 35.8121 29.552 35.831C29.4909 35.8495 29.4312 35.8722 29.3733 35.899L29.8297 36.1623L29.9109 36.1336C30.0263 36.0942 30.1359 36.0614 30.2358 36.0343C30.3322 36.0083 30.431 35.9918 30.5306 35.9851C30.6217 35.9791 30.7131 35.9851 30.8027 36.0032C30.8939 36.0231 30.9814 36.0577 31.0617 36.1057C31.141 36.1459 31.2087 36.206 31.2583 36.2803C31.2747 36.3068 31.2857 36.3364 31.2907 36.3672C31.2957 36.398 31.2946 36.4295 31.2875 36.4599C31.2679 36.5275 31.2309 36.5886 31.1803 36.637C31.1177 36.6998 31.0479 36.7549 30.9724 36.801L31.2623 36.97L31.1048 37.0643L30.8124 36.8937C30.6729 36.9624 30.5271 37.0173 30.3771 37.0577C30.2201 37.1012 30.0599 37.1313 29.8979 37.1479L29.7444 36.8716C29.7874 36.8705 29.8302 36.8672 29.8728 36.8617C29.9369 36.8538 30.0006 36.8426 30.0636 36.8281C30.1343 36.8133 30.2082 36.7937 30.2861 36.7707C30.3625 36.7491 30.4372 36.7217 30.5095 36.6887L30.0555 36.4247L29.9962 36.4452L29.9345 36.464C29.8316 36.4992 29.7269 36.529 29.621 36.5534C29.533 36.5739 29.4433 36.586 29.353 36.5895C29.2739 36.5923 29.1947 36.5849 29.1175 36.5673C29.0406 36.5487 28.967 36.5186 28.899 36.478C28.824 36.4389 28.7589 36.3827 28.709 36.314C28.672 36.2625 28.6539 36.1995 28.6578 36.136C28.6643 36.0702 28.6903 36.0079 28.7325 35.9573C28.785 35.8917 28.8472 35.8348 28.9169 35.7883L28.6481 35.6317L28.8064 35.5391L29.0728 35.6949C29.1975 35.6317 29.3288 35.5828 29.4643 35.5489C29.5931 35.5166 29.7238 35.4927 29.8557 35.4776L29.993 35.7473ZM29.2182 36.2295C29.278 36.2641 29.347 36.2791 29.4155 36.2721C29.5082 36.262 29.5995 36.2413 29.6876 36.2106L29.2604 35.9646C29.1039 36.0663 29.0899 36.1546 29.2182 36.2295ZM30.7158 36.3558C30.6506 36.3199 30.5756 36.3063 30.5022 36.3172C30.4011 36.3304 30.3014 36.3523 30.2041 36.3828L30.628 36.6288C30.8094 36.5184 30.8387 36.4274 30.7158 36.3558Z" fill="#F9CA06"/>
<path d="M30.0343 38.3779C32.2245 38.3779 33.9999 37.3429 33.9999 36.0663C33.9999 34.7897 32.2245 33.7547 30.0343 33.7547C27.8441 33.7547 26.0687 34.7897 26.0687 36.0663C26.0687 37.3429 27.8441 38.3779 30.0343 38.3779Z" fill="#DD990E"/>
<path d="M26.0703 36.1008V35.0479L26.8532 35.7523L26.0703 36.1008Z" fill="#DD990E"/>
<path d="M34 35.075V36.0663L33.5996 36.4952L33.4038 35.3611L34 35.075Z" fill="#DD990E"/>
<path d="M30.0344 37.3865C32.2245 37.3865 34 36.3516 34 35.0749C34 33.7983 32.2245 32.7634 30.0344 32.7634C27.8442 32.7634 26.0687 33.7983 26.0687 35.0749C26.0687 36.3516 27.8442 37.3865 30.0344 37.3865Z" fill="#F9CB07"/>
<path d="M32.8686 35.1471C32.8288 35.5366 32.5535 35.9195 32.0427 36.218C30.9333 36.8642 29.136 36.8642 28.0267 36.218C27.5158 35.9195 27.2413 35.5366 27.2015 35.1471C27.1536 34.6912 27.4298 34.2254 28.0267 33.8778C29.136 33.2308 30.9333 33.2308 32.0427 33.8778C32.6404 34.2254 32.9157 34.6912 32.8686 35.1471Z" fill="#CC8B09"/>
<path d="M32.8687 35.1471C32.8289 35.5366 32.5536 35.9196 32.0427 36.218C30.9334 36.8642 29.1361 36.8642 28.0267 36.218C27.5159 35.9196 27.2414 35.5366 27.2016 35.1471C27.2414 34.7576 27.5159 34.3739 28.0267 34.0762C29.1361 33.4292 30.9334 33.4292 32.0427 34.0762C32.5536 34.3739 32.8289 34.7576 32.8687 35.1471Z" fill="#E8A30A"/>
<path d="M29.993 34.6042C29.9581 34.6042 29.9234 34.6069 29.889 34.6124C29.8427 34.6198 29.7899 34.6289 29.7323 34.6412C29.6746 34.6535 29.6137 34.669 29.552 34.6879C29.4908 34.7063 29.4311 34.7293 29.3733 34.7568L29.8297 35.0224L29.9109 34.9929C30.0263 34.9544 30.1359 34.9216 30.2358 34.8937C30.3322 34.8676 30.431 34.8511 30.5306 34.8445C30.6217 34.8391 30.7131 34.8455 30.8027 34.8634C30.894 34.8829 30.9815 34.9176 31.0617 34.9659C31.141 35.0058 31.2087 35.0656 31.2583 35.1397C31.2746 35.1664 31.2856 35.196 31.2907 35.227C31.2957 35.2579 31.2946 35.2896 31.2875 35.3201C31.2697 35.3874 31.2347 35.4487 31.186 35.498C31.1236 35.5611 31.0538 35.6162 30.9781 35.662L31.2672 35.8342L31.1048 35.9253L30.8124 35.7547C30.673 35.8237 30.5272 35.8787 30.3771 35.9187C30.2202 35.9628 30.0599 35.9933 29.8979 36.0097L29.7444 35.7334C29.7874 35.7324 29.8302 35.7288 29.8728 35.7227C29.9369 35.7151 30.0006 35.7042 30.0636 35.6899C30.1343 35.6743 30.2082 35.6555 30.2861 35.6325C30.3625 35.6109 30.4372 35.5835 30.5095 35.5505L30.0555 35.2857L29.9962 35.307L29.9345 35.3258C29.82 35.3636 29.716 35.3939 29.621 35.4152C29.533 35.4358 29.4433 35.4478 29.353 35.4513C29.2739 35.4541 29.1947 35.4467 29.1175 35.4292C29.0408 35.4102 28.9672 35.3801 28.899 35.3398C28.8238 35.3009 28.7587 35.2447 28.709 35.1758C28.672 35.1246 28.6539 35.0619 28.6578 34.9987C28.6643 34.9328 28.6903 34.8705 28.7325 34.8199C28.7848 34.7542 28.847 34.6972 28.9169 34.651L28.6481 34.4935L28.8064 34.4017L29.0728 34.5567C29.1977 34.4942 29.329 34.4455 29.4643 34.4115C29.5929 34.3784 29.7237 34.3546 29.8557 34.3402L29.993 34.6042ZM29.2182 35.0872C29.278 35.1219 29.347 35.1368 29.4155 35.1299C29.5082 35.1197 29.5995 35.0991 29.6876 35.0684L29.2604 34.8224C29.1037 34.924 29.0899 35.0142 29.2182 35.088V35.0872ZM30.7158 35.2127C30.6505 35.1772 30.5756 35.1637 30.5022 35.1741C30.4012 35.188 30.3015 35.2102 30.2041 35.2406L30.628 35.4866C30.8094 35.3767 30.8387 35.2857 30.7158 35.2135V35.2127Z" fill="#CC8B09"/>
<path d="M29.7476 35.7351C29.7525 35.7236 29.7476 35.5793 29.7476 35.5793L29.9222 35.6924L29.8467 35.8097L29.7476 35.7351Z" fill="#CC8B09"/>
<path d="M31.2663 35.8326V35.6776L30.8887 35.7071L31.1055 35.8556L31.2663 35.8326Z" fill="#CC8B09"/>
<path d="M31.2979 35.2627V35.1061L31.0153 35.2094L31.2979 35.2627Z" fill="#CC8B09"/>
<path d="M30.1302 35.2545L30.2244 35.1643L30.5557 35.3956L30.5346 35.4636C30.5346 35.4636 30.291 35.3579 30.2796 35.3521C30.2682 35.3464 30.1302 35.2545 30.1302 35.2545Z" fill="#CC8B09"/>
<path d="M29.262 34.7682L29.7013 35.02L29.7915 34.9536C29.7915 34.9536 29.7363 34.8896 29.7322 34.8839C29.6928 34.8383 29.6465 34.7992 29.595 34.7682C29.5625 34.7617 29.3513 34.6674 29.3513 34.6674L29.262 34.7682Z" fill="#CC8B09"/>
<path d="M29.9929 34.6051V34.4501L29.7914 34.3837L29.7476 34.5058L29.7581 34.5616L29.9929 34.6051Z" fill="#CC8B09"/>
<path d="M28.6512 34.4927V34.3378L28.8859 34.3632L28.8096 34.5141L28.6512 34.4927Z" fill="#CC8B09"/>
<path d="M28.6601 35.02V34.856H28.9281L28.8632 35.0003L28.7495 35.1324L28.6601 35.02Z" fill="#CC8B09"/>
<path d="M29.993 34.4501C29.9581 34.45 29.9234 34.4527 29.889 34.4583C29.8427 34.4648 29.7899 34.4747 29.7323 34.487C29.6746 34.4993 29.6137 34.5149 29.552 34.5337C29.4909 34.5522 29.4312 34.5749 29.3733 34.6018L29.8297 34.8683L29.9109 34.8388C30.0263 34.8002 30.1359 34.7666 30.2358 34.7395C30.3322 34.7134 30.431 34.697 30.5306 34.6903C30.6217 34.6845 30.7132 34.6909 30.8027 34.7092C30.8939 34.7288 30.9813 34.7632 31.0617 34.8109C31.1409 34.8513 31.2085 34.9114 31.2583 34.9855C31.2747 35.012 31.2857 35.0415 31.2907 35.0724C31.2957 35.1032 31.2946 35.1347 31.2875 35.1651C31.2693 35.232 31.2343 35.293 31.186 35.3422C31.1234 35.405 31.0536 35.4601 30.9781 35.5062L31.268 35.6752L31.1048 35.7703L30.8124 35.5997C30.6729 35.6684 30.5271 35.7233 30.3771 35.7637C30.2202 35.8078 30.0599 35.8383 29.8979 35.8547L29.7444 35.5776C29.7874 35.5765 29.8302 35.5732 29.8728 35.5677C29.9369 35.5601 30.0006 35.5492 30.0636 35.5349C30.1343 35.5194 30.2082 35.5005 30.2861 35.4775C30.3624 35.4555 30.437 35.4281 30.5095 35.3955L30.0555 35.1315L29.9962 35.152L29.9345 35.1717C29.82 35.2094 29.716 35.2389 29.621 35.2602C29.533 35.281 29.4433 35.2934 29.353 35.2971C29.2738 35.3001 29.1946 35.2923 29.1175 35.2742C29.0407 35.2558 28.967 35.226 28.899 35.1856C28.8241 35.1462 28.7592 35.0901 28.709 35.0216C28.672 34.9704 28.6539 34.9078 28.6578 34.8445C28.6645 34.7785 28.6905 34.7159 28.7325 34.6649C28.785 34.5994 28.8472 34.5424 28.9169 34.496L28.6481 34.3394L28.8064 34.2475L29.0728 34.4025C29.1977 34.34 29.329 34.2913 29.4643 34.2574C29.5929 34.2242 29.7237 34.2004 29.8557 34.186L29.993 34.4501ZM29.2182 34.9322C29.2779 34.9672 29.3469 34.9824 29.4155 34.9757C29.5081 34.9647 29.5992 34.9441 29.6876 34.9142L29.2604 34.6682C29.1039 34.7693 29.0899 34.8573 29.2182 34.9322ZM30.7158 35.0585C30.6506 35.0226 30.5756 35.0091 30.5022 35.02C30.401 35.033 30.3013 35.0552 30.2041 35.0864L30.628 35.3324C30.8094 35.2214 30.8387 35.1301 30.7158 35.0585Z" fill="#F9CA06"/>
<path opacity="0.15" d="M24.4299 22.1059L22.981 21.2375L22.9908 12.5914L24.4396 13.4598L24.4299 22.1059Z" fill="black"/>
<path d="M23.3147 13.1703C21.5662 14.2683 20.1694 16.7595 20.1694 18.8169C20.1694 20.8742 21.5662 21.7377 23.3147 20.798V13.1703Z" fill="#DD990E"/>
<path d="M23.314 13.1695L24.1732 13.6648L23.4772 15.1572L22.7033 14.4823L23.314 13.1695Z" fill="#DD990E"/>
<path d="M22.1323 21.5261C22.1145 21.5179 20.9953 20.8701 20.9953 20.8701L21.5939 20.388L22.1323 21.5261Z" fill="#DD990E"/>
<path d="M24.1732 13.6648C22.4255 14.7636 21.0286 17.2547 21.0286 19.3121C21.0286 21.3695 22.4255 22.2321 24.1732 21.2932V13.6648Z" fill="#F9CB07"/>
<path d="M24.1732 15.0063C22.9388 15.8042 21.9593 17.5672 21.9593 19.0243C21.9593 20.4814 22.9388 21.103 24.1732 20.4618V15.0063Z" fill="#E8A30A"/>
<path d="M23.6591 17.8657C23.7196 17.8912 23.7855 17.9007 23.8507 17.8935C23.9429 17.8851 24.0342 17.8687 24.1236 17.8443L24.1731 17.8329V17.322C24.1197 17.334 24.0642 17.334 24.0107 17.322C23.9628 17.3089 23.9384 17.2613 23.9384 17.1793C23.9416 17.0972 23.9643 17.0171 24.0046 16.9458C24.0448 16.8744 24.1016 16.8139 24.1699 16.7693V16.3364C24.0828 16.3984 24.0012 16.4681 23.9263 16.5446C23.8412 16.6317 23.7663 16.7283 23.7029 16.8325C23.6409 16.9355 23.5913 17.0456 23.5551 17.1605C23.5197 17.2746 23.5016 17.3935 23.5015 17.5131C23.498 17.5921 23.5113 17.6709 23.5405 17.7443C23.5636 17.7983 23.6059 17.8416 23.6591 17.8657Z" fill="#F9CA06"/>
<path d="M24.1732 18.4569C24.1237 18.4766 24.0726 18.4922 24.0205 18.5036C23.9587 18.5165 23.896 18.525 23.8329 18.529C23.7846 18.532 23.7361 18.5295 23.6884 18.5217C23.6588 18.5172 23.6301 18.5083 23.6031 18.4954L23.4155 19.0317C23.5376 19.0585 23.6639 19.0602 23.7866 19.0366C23.9206 19.0122 24.0507 18.9694 24.1732 18.9095V18.4569Z" fill="#F9CA06"/>
<path opacity="0.3" d="M14.8735 40.9182L0.138127 32.3296C-0.0665301 32.2107 -0.0405419 32.0016 0.194977 31.8663L8.4292 27.066C8.66471 26.9283 9.02124 26.9135 9.22509 27.0324L23.958 35.6227C24.1618 35.7416 24.1367 35.9507 23.9011 36.0868L15.6694 40.8863C15.4306 41.024 15.0773 41.0388 14.8735 40.9182Z" fill="#D6D8E5"/>
<path d="M24.4395 35.3021L24.2852 35.3586L9.56613 26.7782C9.36228 26.6593 9.00575 26.674 8.77024 26.811L0.536015 31.6112C0.502252 31.6307 0.470667 31.6538 0.441808 31.6801L0.341915 31.5981V31.8704C0.344304 31.9136 0.358357 31.9553 0.382552 31.991C0.406746 32.0267 0.440158 32.055 0.479166 32.0729L15.2145 40.6657C15.4184 40.7846 15.7749 40.769 16.0104 40.632L24.2446 35.8342C24.3778 35.7522 24.4436 35.6563 24.4395 35.5628V35.3021Z" fill="#DADCE5"/>
<path d="M15.2145 40.4033L0.479163 31.8163C0.274506 31.6974 0.300494 31.4883 0.536013 31.353L8.77104 26.5495C9.00656 26.4117 9.36309 26.3969 9.56694 26.5158L24.3015 35.1061C24.5061 35.225 24.4801 35.4341 24.2446 35.5703L16.0104 40.3697C15.7749 40.5083 15.4184 40.5222 15.2145 40.4033Z" fill="#8DC2F3"/>
<path d="M5.38448 33.216L2.55663 31.5686L3.21121 31.1873L6.03824 32.8347L5.38448 33.216Z" fill="#DADCE5"/>
<path d="M11.0207 29.863L8.19365 28.2148L8.84741 27.8335L11.6745 29.4817L11.0207 29.863Z" fill="#DADCE5"/>
<path d="M8.80922 35.2135L5.983 33.5653L6.63677 33.184L9.4638 34.8322L8.80922 35.2135Z" fill="#DADCE5"/>
<path d="M12.2356 37.2102L9.40779 35.562L10.0624 35.1807L12.8894 36.8289L12.2356 37.2102Z" fill="#DADCE5"/>
<path d="M15.6612 39.2069L12.8342 37.5587L13.4879 37.1774L16.315 38.8256L15.6612 39.2069Z" fill="#DADCE5"/>
<path opacity="0.5" d="M20.8832 35.8752C21.5421 35.8752 22.0762 35.5639 22.0762 35.1799C22.0762 34.7958 21.5421 34.4845 20.8832 34.4845C20.2243 34.4845 19.6902 34.7958 19.6902 35.1799C19.6902 35.5639 20.2243 35.8752 20.8832 35.8752Z" fill="#DADCE5"/>
<path opacity="0.5" d="M19.959 35.3357C20.6179 35.3357 21.1521 35.0244 21.1521 34.6404C21.1521 34.2563 20.6179 33.945 19.959 33.945C19.3001 33.945 18.766 34.2563 18.766 34.6404C18.766 35.0244 19.3001 35.3357 19.959 35.3357Z" fill="#DADCE5"/>
</svg>
